<svg
  xmlns="http://www.w3.org/2000/svg"
  width="1060.5455398242436"
  height="811.321835678907"
  baseProfile="full"
  version="1.1"
  viewBox="-530.27277,-0.00000,1060.54554,811.32184"
>
  <defs>
    <style type="text/css" />
  </defs>
  <g transform="scale(1,-1)">
    <g
      class="scalerank featurecla LABELRANK SOVEREIGNT SOV_A3 ADM0_DIF LEVEL TYPE ADMIN ADM0_A3 GEOU_DIF GEOUNIT GU_A3 SU_DIF SUBUNIT SU_A3 BRK_DIFF NAME NAME_LONG BRK_A3 BRK_NAME BRK_GROUP ABBREV POSTAL FORMAL_EN FORMAL_FR NAME_CIAWF NOTE_ADM0 NOTE_BRK NAME_SORT NAME_ALT MAPCOLOR7 MAPCOLOR8 MAPCOLOR9 MAPCOLOR13 POP_EST POP_RANK GDP_MD_EST POP_YEAR LASTCENSUS GDP_YEAR ECONOMY INCOME_GRP WIKIPEDIA FIPS_10_ ISO_A2 ISO_A3 ISO_A3_EH ISO_N3 UN_A3 WB_A2 WB_A3 WOE_ID WOE_ID_EH WOE_NOTE ADM0_A3_IS ADM0_A3_US ADM0_A3_UN ADM0_A3_WB CONTINENT REGION_UN SUBREGION REGION_WB NAME_LEN LONG_LEN ABBREV_LEN TINY HOMEPART MIN_ZOOM MIN_LABEL MAX_LABEL"
    >
      <g>
        <polygon
          points="186.72328,-695.37568 195.92852,-693.24471 209.15625,-690.35965 218.84970,-692.84670 217.22924,-718.69765 210.89005,-725.60378 207.38824,-742.99011 202.40393,-736.42594 189.79037,-750.58909 186.60156,-749.09559 176.85074,-747.51182 168.58820,-727.90562 167.58039,-713.31542 159.69486,-693.61594 160.89858,-683.70871 171.51611,-686.50336 186.72328,-695.37568"
          class="ne_110m_admin_0_countries"
          fill-rule="evenodd"
        />
        <polygon
          points="187.33649,-127.86155 201.40984,-120.74727 207.64191,-130.40325 216.98443,-139.61454 214.05153,-148.94305 216.93022,-167.66457 219.14620,-178.59129 224.09307,-181.64361 228.02164,-200.33898 225.06706,-211.17990 230.31118,-226.16402 251.04063,-239.32989 264.13974,-250.84156 276.50172,-261.48931 273.33062,-266.30682 283.14980,-280.79703 288.11663,-304.43939 296.47490,-300.76533 303.26746,-310.84183 308.43877,-308.21918 308.93582,-330.86396 320.91243,-345.51877 328.72343,-354.71464 341.22101,-373.73524 344.08324,-391.27912 342.81523,-403.24117 339.62472,-415.95976 345.83218,-434.99503 341.99673,-453.28979 337.38461,-462.47776 329.72232,-480.37688 328.33106,-492.41342 322.58382,-506.88640 311.97623,-524.81066 297.41423,-533.30247 288.79355,-548.72768 281.58351,-558.37254 274.07814,-575.92175 266.07237,-585.62104 259.76525,-600.94152 255.77992,-615.30401 255.83376,-622.13673 245.23242,-628.37984 226.19547,-627.02883 209.68099,-634.17244 201.12223,-641.70509 190.11572,-649.96138 177.04174,-639.24752 167.02561,-634.61532 170.55044,-623.65730 160.96746,-626.97766 145.05127,-641.43926 130.87088,-634.64921 121.49701,-630.67316 111.91133,-628.59904 95.80877,-621.57939 85.36369,-607.88974 82.82213,-591.51650 79.21695,-580.57465 70.99592,-571.62547 54.33537,-568.57142 60.34463,-558.39101 56.52241,-542.48408 47.59484,-556.99952 31.96458,-560.62625 41.32456,-549.00568 44.23356,-536.79218 51.29785,-526.54332 50.23769,-510.81168 35.40599,-528.61407 24.24842,-535.72559 17.34456,-552.57223 3.66609,-543.75355 4.23378,-532.47724 -6.88985,-517.09541 -16.34983,-509.20220 -13.01590,-504.28963 -36.22345,-491.71555 -48.90353,-491.35213 -66.54714,-481.50572 -98.87637,-484.69928 -121.87364,-493.41641 -141.91914,-501.67833 -159.13873,-501.43611 -177.29303,-513.70163 -192.33950,-519.86578 -194.78709,-531.24279 -200.53808,-540.42075 -215.44767,-542.35733 -226.31408,-545.35484 -242.28645,-543.17413 -254.67523,-546.91700 -266.62414,-549.32751 -275.63627,-561.87348 -280.85013,-561.57398 -288.81086,-568.68649 -296.25350,-576.52546 -309.01852,-577.47736 -320.63679,-579.17147 -341.11967,-568.57184 -351.12072,-566.08661 -352.68987,-554.01248 -344.43728,-549.76415 -342.20775,-544.52411 -344.01039,-537.09904 -344.12121,-522.21125 -348.05739,-510.13668 -360.90912,-490.55082 -365.79989,-479.13267 -366.94665,-467.14049 -376.44291,-454.78542 -377.92350,-448.75006 -387.46264,-441.83395 -392.53664,-425.94687 -406.01702,-411.34325 -410.16670,-402.94220 -400.37611,-410.48754 -410.06059,-392.32097 -399.68634,-396.72557 -392.76296,-403.82750 -394.87665,-393.23396 -407.02275,-378.46849 -409.97858,-372.23822 -415.47444,-366.79114 -415.51424,-354.40287 -412.48004,-348.59871 -411.65676,-337.73314 -415.82360,-325.91473 -410.36740,-309.53315 -406.20811,-325.17067 -400.40041,-309.44267 -385.66336,-299.88095 -377.50646,-289.45609 -363.61919,-279.48021 -354.87908,-276.52464 -349.07018,-278.33191 -334.56770,-268.32987 -322.84334,-264.38954 -320.42879,-259.38350 -315.40615,-256.78280 -304.33082,-255.89844 -284.08337,-247.22838 -274.24189,-236.62449 -270.33596,-224.75501 -259.60827,-212.74152 -259.56799,-204.17709 -260.22213,-192.56746 -247.67056,-173.03063 -237.27232,-190.60837 -228.94912,-185.55888 -237.18310,-176.15325 -231.66319,-165.20016 -222.14449,-169.02171 -221.03637,-152.52905 -210.54825,-141.03040 -206.19297,-132.14715 -195.94553,-127.66882 -196.06882,-121.62868 -186.65623,-123.46395 -186.67257,-118.02163 -177.62865,-114.28773 -167.63102,-110.70527 -151.46571,-119.65679 -139.10941,-131.76370 -126.00195,-131.24161 -112.60055,-132.64860 -117.56675,-121.01601 -108.21273,-103.25906 -98.88569,-97.22588 -102.40351,-91.93816 -93.61238,-79.19723 -80.91152,-71.09771 -69.88521,-73.37276 -51.98353,-68.85751 -52.59078,-57.72010 -68.54220,-50.88436 -57.11671,-47.43729 -42.71687,-52.59208 -31.15333,-61.38991 -13.02051,-66.81928 -6.90004,-64.59056 6.39274,-71.28815 18.94878,-65.10876 26.99417,-67.07641 32.06603,-62.94314 41.76048,-73.85909 35.90033,-85.41156 27.71879,-94.07977 20.41639,-94.73451 22.80057,-103.41340 16.51648,-114.17120 8.99591,-124.74052 10.47229,-130.83004 26.99231,-142.83961 42.92761,-149.94258 53.47882,-157.53172 68.11603,-170.58099 73.92913,-170.72143 84.53644,-176.53366 87.43651,-183.24178 106.71333,-191.23111 120.55880,-184.54181 125.13227,-173.26043 129.79261,-163.98589 132.96490,-152.36631 140.19985,-135.61409 137.85039,-125.04970 139.69994,-118.85924 137.91752,-106.37315 141.56245,-90.21198 145.88346,-86.02845 142.95854,-78.59656 148.76404,-67.34841 153.52435,-55.60046 154.42699,-49.39948 162.94641,-41.68108 168.38061,-52.75441 169.00950,-66.53020 174.18295,-69.50735 174.49615,-78.69933 181.49905,-90.25754 182.24392,-102.61951 180.95326,-110.41477 187.33649,-127.86155"
          class="ne_110m_admin_0_countries"
          fill-rule="evenodd"
        />
      </g>
      <g>
        <polygon
          points="-530.47277,0.20000 -497.45234,0.20000 -487.25487,-12.15477 -453.70694,-10.46661 -424.76690,-19.16514 -448.27936,-31.52099 -473.71110,-26.80309 -493.29769,-30.92640 -516.14949,-33.53310 -530.47277,-33.57414 -530.47277,0.20000"
          class="ne_110m_admin_0_countries"
          fill-rule="evenodd"
        />
        <polygon
          points="-268.64790,0.20000 -269.57055,-5.56221 -301.82955,-15.27497 -331.22963,-15.95976 -332.28799,-7.92636 -315.39750,-1.26992 -300.88934,-6.32415 -286.45585,-3.06930 -280.33550,0.20000 -268.64790,0.20000"
          class="ne_110m_admin_0_countries"
          fill-rule="evenodd"
        />
        <polygon
          points="132.77705,0.20000 132.51490,-5.83104 126.56593,0.20000 132.77705,0.20000"
          class="ne_110m_admin_0_countries"
          fill-rule="evenodd"
        />
        <polygon
          points="-319.34642,-46.70455 -350.00374,-34.97733 -330.27678,-28.11504 -318.04980,-33.41303 -309.68563,-39.17359 -310.30161,-45.22068 -319.34642,-46.70455"
          class="ne_110m_admin_0_countries"
          fill-rule="evenodd"
        />
        <polygon
          points="-217.98370,-10.72097 -217.04375,-17.36513 -229.90055,-34.93945 -248.03333,-41.40482 -250.87696,-39.02078 -249.61500,-31.39214 -241.45958,-17.14467 -220.55588,-6.55198 -217.98370,-10.72097"
          class="ne_110m_admin_0_countries"
          fill-rule="evenodd"
        />
        <polygon
          points="-368.91020,-10.80453 -355.60726,-7.20193 -348.96241,-15.84903 -373.61510,-23.62444 -388.28723,-28.69309 -400.00745,-30.22736 -394.36938,-16.50856 -382.40516,-14.61911 -377.62156,-6.02056 -368.91020,-10.80453"
          class="ne_110m_admin_0_countries"
          fill-rule="evenodd"
        />
      </g>
      <g>
        <polygon
          points="184.28772,0.20000 184.91886,-5.90026 167.21163,-12.36704 155.15716,-7.95119 132.51490,-5.83104 132.77705,0.20000 184.28772,0.20000"
          class="ne_110m_admin_0_countries"
          fill-rule="evenodd"
        />
        <polygon
          points="292.13721,0.20000 301.16220,-19.00619 313.75098,-19.69598 311.75028,-29.31332 328.08811,-35.02556 321.08326,-38.36619 342.93974,-50.39669 339.74173,-56.38662 325.29057,-56.13016 320.66605,-49.84083 302.38569,-45.23111 280.87396,-39.56711 265.38936,-23.87281 254.14583,-10.58968 249.03346,0.20000 292.13721,0.20000"
          class="ne_110m_admin_0_countries"
          fill-rule="evenodd"
        />
      </g>
      <g>
        <polygon
          points="491.88767,0.20000 492.12511,-0.04052 499.56720,-8.80414 494.97652,-9.25659 486.28126,-2.51787 484.38272,0.20000 491.88767,0.20000"
          class="ne_110m_admin_0_countries"
          fill-rule="evenodd"
        />
        <polygon
          points="530.47277,-31.49835 520.79959,-22.03283 513.99879,-13.17772 517.68125,-11.56315 526.72936,-18.75811 530.47277,-21.96110 530.47277,-31.49835"
          class="ne_110m_admin_0_countries"
          fill-rule="evenodd"
        />
      </g>
      <polygon
        points="-179.77753,0.20000 -199.20491,-9.63467 -217.04375,-17.36513 -217.98370,-10.72097 -220.55588,-6.55198 -218.39374,-1.13629 -214.53050,0.20000 -179.77753,0.20000"
        class="ne_110m_admin_0_countries"
        fill-rule="evenodd"
      />
    </g>
    <g class="name continent installations">
      <circle
        cx="279.22656"
        cy="-560.50343"
        class="janeway_installations"
        r="1"
      />
    </g>
  </g>
</svg>
