<svg
  xmlns="http://www.w3.org/2000/svg"
  width="633.23988027992"
  height="631.9787504027612"
  baseProfile="full"
  version="1.1"
  viewBox="-307.73774,-21.74938,633.23988,631.97875"
>
  <defs>
    <style type="text/css" />
  </defs>
  <g transform="scale(1,-1)">
    <g
      class="scalerank featurecla LABELRANK SOVEREIGNT SOV_A3 ADM0_DIF LEVEL TYPE ADMIN ADM0_A3 GEOU_DIF GEOUNIT GU_A3 SU_DIF SUBUNIT SU_A3 BRK_DIFF NAME NAME_LONG BRK_A3 BRK_NAME BRK_GROUP ABBREV POSTAL FORMAL_EN FORMAL_FR NAME_CIAWF NOTE_ADM0 NOTE_BRK NAME_SORT NAME_ALT MAPCOLOR7 MAPCOLOR8 MAPCOLOR9 MAPCOLOR13 POP_EST POP_RANK GDP_MD_EST POP_YEAR LASTCENSUS GDP_YEAR ECONOMY INCOME_GRP WIKIPEDIA FIPS_10_ ISO_A2 ISO_A3 ISO_A3_EH ISO_N3 UN_A3 WB_A2 WB_A3 WOE_ID WOE_ID_EH WOE_NOTE ADM0_A3_IS ADM0_A3_US ADM0_A3_UN ADM0_A3_WB CONTINENT REGION_UN SUBREGION REGION_WB NAME_LEN LONG_LEN ABBREV_LEN TINY HOMEPART MIN_ZOOM MIN_LABEL MAX_LABEL"
    >
      <polygon
        points="231.40512,-465.98167 226.66596,-470.08130 226.96062,-477.23747 221.13507,-489.05086 218.04173,-488.04110 216.88406,-483.36385 206.49561,-477.69856 203.36388,-467.68502 202.30352,-452.79634 203.38682,-445.76713 200.12104,-442.83972 200.12102,-442.83965 197.91480,-436.19500 203.01791,-424.49016 204.71390,-428.34393 208.64109,-425.70964 213.03193,-430.85058 217.22501,-432.35474 219.71160,-439.90922 219.71163,-439.90932 218.99883,-447.56276 222.96506,-456.32974 230.67015,-460.29249 231.40512,-465.98167"
        class="ne_110m_admin_0_countries"
        fill-rule="evenodd"
      />
      <polygon
        points="143.85113,-323.50383 135.71988,-324.59374 139.11128,-328.88095 135.99065,-343.28067 133.62332,-347.24091 120.76697,-349.25610 113.80129,-354.91761 101.36989,-354.43436 79.71521,-350.59811 75.89350,-343.33686 61.56327,-347.98691 60.06752,-352.18273 50.94478,-349.56354 43.37537,-349.29741 36.55541,-345.60900 38.62403,-340.25046 37.92420,-336.44162 42.28880,-335.09103 49.94442,-340.77025 51.76501,-334.98269 64.68546,-335.21820 74.85343,-330.69132 81.87014,-330.85215 86.75215,-334.90873 87.81854,-331.14367 84.65673,-317.28789 89.58645,-314.14014 93.76070,-303.79686 104.96720,-309.73004 112.05788,-300.13491 116.85314,-297.99665 128.58206,-303.27056 135.09362,-301.33476 142.15087,-304.52472 141.37071,-307.39235 143.77916,-314.61603 143.85113,-323.50383"
        class="ne_110m_admin_0_countries"
        fill-rule="evenodd"
      />
      <polygon
        points="-27.32109,-251.47499 -18.96163,-261.11964 -11.53646,-266.27342 -13.27592,-280.83765 -16.90504,-281.59935 -18.62305,-293.67511 -30.61915,-283.55289 -37.81710,-284.99888 -47.07296,-274.43714 -53.03542,-265.47372 -59.36721,-264.77065 -60.89246,-257.07559 -49.81621,-253.41249 -49.81567,-253.41261 -49.81624,-253.41305 -39.99165,-255.54407 -27.32109,-251.47499"
        class="ne_110m_admin_0_countries"
        fill-rule="evenodd"
      />
      <polygon
        points="325.70214,-409.97110 321.76233,-410.23796 307.56781,-421.11104 310.12197,-431.64160 296.15863,-437.30159 283.14961,-432.62711 271.72801,-441.41002 259.73977,-443.41188 255.58282,-429.59270 246.21946,-424.44136 248.18552,-420.90008 245.95205,-418.72820 247.16933,-411.41627 251.68491,-403.51756 242.22892,-395.96103 239.23480,-388.50165 241.99295,-382.90303 248.24885,-390.67343 253.84509,-387.82863 266.34794,-388.46429 289.05186,-384.14366 295.21933,-376.86165 311.67818,-367.24211 324.76514,-371.73962 325.70214,-371.70076 325.70214,-409.97110"
        class="ne_110m_admin_0_countries"
        fill-rule="evenodd"
      />
      <polygon
        points="187.17829,-389.00969 195.94754,-395.99593 195.38344,-406.42590 191.87742,-407.97930 189.28384,-410.40708 184.99241,-416.19413 184.52556,-428.34822 169.33333,-422.30678 162.14465,-414.16743 155.54596,-410.21821 147.35796,-403.11960 143.17384,-396.87974 134.44600,-387.73703 136.57927,-378.44321 142.63574,-382.70692 145.36842,-377.83898 152.38661,-376.43772 165.91318,-378.17322 176.34799,-376.30196 183.95567,-379.94727 183.95561,-379.94738 189.45148,-378.98723 187.17829,-389.00969"
        class="ne_110m_admin_0_countries"
        fill-rule="evenodd"
      />
      <polygon
        points="325.70214,-155.92514 323.02007,-161.09510 312.85357,-163.79998 311.12521,-166.51461 316.32735,-172.33670 323.86666,-184.39103 323.86696,-184.39098 313.44053,-189.24722 311.00619,-195.03538 313.53977,-205.64190 307.78247,-205.29988 296.45078,-209.91659 291.60312,-206.11020 287.83587,-211.16482 282.09411,-209.59607 271.78355,-212.08219 255.97240,-210.99928 242.46594,-212.71026 232.51979,-215.62513 226.70056,-223.00028 220.61651,-225.24460 218.26982,-215.91467 212.11232,-207.02157 218.85725,-200.99462 217.01843,-192.57198 211.69855,-185.33497 209.06702,-176.11002 221.14466,-173.48593 232.63790,-162.27942 232.46440,-149.69799 240.60184,-140.39453 236.97858,-131.29483 243.23042,-125.82297 253.55834,-114.19820 267.39304,-115.77471 270.63397,-120.42469 276.00798,-116.03885 289.02084,-117.29458 293.36273,-126.59338 292.64857,-132.98872 304.62754,-143.96566 310.80753,-146.04032 311.34524,-149.98987 320.77683,-150.75267 325.70214,-154.56182 325.70214,-155.92514"
        class="ne_110m_admin_0_countries"
        fill-rule="evenodd"
      />
      <polygon
        points="38.62403,-340.25046 36.55541,-345.60900 43.37537,-349.29741 50.94478,-349.56354 50.16803,-358.46226 43.74222,-362.37810 32.59329,-360.04844 29.58833,-368.84768 22.43503,-369.69919 19.76548,-366.32380 11.42323,-373.76848 4.14176,-374.84597 -2.35589,-370.22184 -7.46668,-360.72487 -14.64236,-364.03927 -14.29565,-354.26248 -3.39754,-342.21515 -3.85048,-336.72830 2.81446,-338.71822 6.81191,-335.01331 19.22657,-335.01706 22.12774,-330.27212 37.92420,-336.44162 38.62403,-340.25046"
        class="ne_110m_admin_0_countries"
        fill-rule="evenodd"
      />
      <polygon
        points="135.09362,-301.33476 128.58206,-303.27056 116.85314,-297.99665 112.05788,-300.13491 104.96720,-309.73004 93.76070,-303.79686 85.00885,-295.22475 77.44909,-290.60538 75.31166,-281.63671 72.43371,-275.41051 82.08648,-269.97655 86.72946,-264.19913 96.13613,-259.16047 99.14322,-254.74356 102.95895,-256.85810 108.76582,-253.98868 115.95347,-260.18852 126.34446,-260.84783 126.21929,-266.84680 134.22676,-270.33467 135.54670,-264.54049 145.24404,-265.65033 147.49567,-272.15591 157.91327,-271.93443 165.90994,-281.44158 161.77379,-282.11775 160.20803,-286.28912 157.14591,-287.70164 156.95395,-292.69456 154.41548,-294.10512 154.32561,-296.14676 149.82953,-299.04780 143.52461,-299.55045 142.15087,-304.52472 135.09362,-301.33476"
        class="ne_110m_admin_0_countries"
        fill-rule="evenodd"
      />
      <polygon
        points="89.58645,-314.14014 84.65673,-317.28789 87.81854,-331.14367 86.75215,-334.90873 81.87014,-330.85215 74.85343,-330.69132 64.68546,-335.21820 51.76501,-334.98269 49.94442,-340.77025 42.28880,-335.09103 37.92420,-336.44162 22.12774,-330.27212 19.22657,-335.01706 6.81191,-335.01331 8.54261,-319.62427 15.60127,-304.76713 -4.83258,-300.89606 -11.44392,-295.19481 -10.55492,-285.74259 -13.27592,-280.83765 -11.53646,-266.27342 -13.52987,-243.61802 -5.49320,-243.68515 -2.08515,-235.56499 1.19730,-215.77029 -1.22458,-208.45434 1.29028,-203.87046 12.01407,-202.61953 14.46513,-207.35957 22.96447,-196.51854 19.87948,-188.46425 19.04951,-176.18254 28.56767,-178.80272 36.44568,-175.22551 36.99387,-183.59169 49.96640,-188.05269 50.23488,-195.73827 62.91557,-190.91169 69.60433,-184.49518 84.56683,-191.86460 91.20948,-198.18016 95.26928,-208.85219 92.21102,-214.94713 97.69012,-222.15924 102.10938,-233.33271 101.83043,-240.84823 108.76582,-253.98868 102.95895,-256.85810 99.14322,-254.74356 96.13613,-259.16047 86.72946,-264.19913 82.08648,-269.97655 72.43371,-275.41051 75.31166,-281.63671 77.44909,-290.60538 85.00885,-295.22475 93.76070,-303.79686 89.58645,-314.14014"
        class="ne_110m_admin_0_countries"
        fill-rule="evenodd"
      />
      <g>
        <polygon
          points="28.56767,-178.80272 19.04951,-176.18254 13.80389,-164.22705 13.10769,-142.00859 15.01274,-136.09992 18.30514,-129.49965 28.70754,-127.87142 32.64068,-121.71474 41.80137,-115.16468 41.93533,-126.39270 38.74296,-133.64359 40.44592,-139.67319 47.11917,-142.64802 44.57873,-150.99293 40.85572,-148.80266 32.68272,-164.78988 36.44568,-175.22551 28.56767,-178.80272"
          class="ne_110m_admin_0_countries"
          fill-rule="evenodd"
        />
        <polygon
          points="63.72505,-177.74615 49.97879,-166.30384 47.78624,-157.39153 65.20201,-149.09681 69.89323,-159.67787 63.72505,-177.74615"
          class="ne_110m_admin_0_countries"
          fill-rule="evenodd"
        />
      </g>
      <polygon
        points="-161.69331,-610.42937 -166.55073,-596.34739 -147.84438,-586.33500 -128.07059,-584.49525 -115.96866,-576.44002 -98.31596,-571.11719 -68.03308,-569.07003 -38.67463,-568.45775 -29.81921,-571.96067 -13.01884,-563.54500 5.82612,-563.42602 13.04802,-568.50045 25.12801,-566.98881 21.71953,-578.36889 24.93293,-599.39351 22.53764,-610.42937 -161.69331,-610.42937"
        class="ne_110m_admin_0_countries"
        fill-rule="evenodd"
      />
      <polygon
        points="-254.49389,-416.63901 -258.85644,-406.04535 -233.72925,-395.37456 -215.56931,-402.87295 -194.70689,-406.40397 -178.70539,-412.70469 -165.55995,-413.48199 -140.33400,-417.48405 -135.02995,-426.58981 -106.75728,-439.36617 -100.55259,-435.19221 -83.29628,-446.36239 -64.50133,-444.69238 -64.30778,-457.34258 -80.62110,-470.89410 -102.00402,-473.92710 -104.08250,-481.11033 -115.35224,-492.25981 -123.50247,-509.35477 -118.04974,-522.43734 -128.90111,-531.22398 -134.07896,-545.04809 -147.69221,-547.98958 -162.08304,-563.34976 -184.48766,-560.75527 -201.18305,-557.89545 -213.41339,-563.86574 -221.51732,-570.99941 -229.87725,-567.72122 -235.11669,-559.22428 -237.82750,-545.84561 -253.40013,-539.44087 -253.44224,-532.00686 -245.51355,-525.14319 -242.05460,-519.72221 -246.69131,-512.19295 -239.32396,-498.94626 -243.52576,-484.78185 -236.02044,-484.39408 -233.43822,-474.37773 -230.18048,-471.74009 -226.85106,-455.06113 -218.32066,-450.63245 -220.85439,-439.08113 -230.01541,-436.58562 -233.26865,-438.75341 -242.70214,-436.90767 -244.55205,-425.66893 -251.65242,-427.42178 -258.56152,-431.59065 -254.49389,-416.63901"
        class="ne_110m_admin_0_countries"
        fill-rule="evenodd"
      />
      <polygon
        points="198.47840,-78.75295 194.98452,-82.40061 186.16297,-76.42635 182.47855,-64.34754 194.92964,-55.21201 207.80428,-48.73829 220.43417,-49.15575 231.36784,-45.42696 231.36806,-45.42723 231.36801,-45.42732 234.04822,-48.64288 229.75762,-62.99281 238.56355,-81.70672 235.59930,-89.73076 226.23245,-92.22633 214.45221,-86.90671 208.85906,-85.54203 200.12598,-91.61420 198.47840,-78.75295"
        class="ne_110m_admin_0_countries"
        fill-rule="evenodd"
      />
      <polygon
        points="243.78714,21.94938 239.75472,10.21949 226.06148,-23.41779 226.06150,-23.41781 226.06147,-23.41787 207.48369,-30.34540 190.75945,-42.84046 174.27299,-51.31943 165.57808,-40.87848 153.85074,-35.84038 152.02210,-14.00821 143.28050,4.70249 145.58519,18.36019 146.99086,21.94938 243.78714,21.94938"
        class="ne_110m_admin_0_countries"
        fill-rule="evenodd"
      />
      <g>
        <polygon
          points="-59.36721,-264.77065 -53.03542,-265.47372 -47.07296,-274.43714 -37.81710,-284.99888 -30.61915,-283.55289 -18.62305,-293.67511 -15.50880,-295.59910 -11.44392,-295.19481 -4.83258,-300.89606 15.60127,-304.76713 8.54261,-319.62427 6.81191,-335.01331 2.81446,-338.71822 -3.85048,-336.72830 -3.39754,-342.21515 -14.29565,-354.26248 -14.64236,-364.03927 -7.46668,-360.72487 -2.35589,-370.22184 -2.99310,-376.32733 1.47413,-384.44808 -3.83558,-391.03001 0.11769,-407.78186 8.57311,-410.49778 6.84290,-419.91265 -7.47895,-432.15766 -38.61542,-425.68150 -61.98639,-431.73666 -64.50133,-444.69238 -83.29628,-446.36239 -100.55259,-435.19221 -106.75728,-439.36617 -135.02995,-426.58981 -140.33400,-417.48405 -130.76862,-405.50505 -123.11912,-362.98988 -135.77441,-338.69537 -145.12318,-326.48207 -165.95664,-315.09993 -164.98213,-299.32646 -146.01158,-297.36553 -122.94642,-305.87972 -124.55073,-281.09834 -112.42431,-291.78553 -78.47044,-277.98316 -73.05496,-260.64580 -60.89246,-257.07559 -59.36721,-264.77065"
          class="ne_110m_admin_0_countries"
          fill-rule="evenodd"
        />
        <polygon
          points="36.54703,-469.63563 29.00206,-465.40480 24.92080,-450.86237 27.98933,-442.72279 38.04620,-434.15534 41.38596,-452.67352 36.54703,-469.63563"
          class="ne_110m_admin_0_countries"
          fill-rule="evenodd"
        />
      </g>
      <g>
        <polygon
          points="-176.73350,-179.18738 -184.52747,-177.99283 -179.74221,-167.09483 -180.04912,-155.19502 -169.64763,-156.26702 -158.78744,-171.81400 -168.04201,-185.31352 -176.73350,-179.18738"
          class="ne_110m_admin_0_countries"
          fill-rule="evenodd"
        />
        <polygon
          points="-129.45034,-110.46672 -117.21629,-109.17831 -104.52081,-110.90840 -109.72250,-128.17607 -122.97833,-146.12584 -110.64411,-149.10901 -109.95572,-151.49300 -101.88640,-178.19292 -93.66533,-182.54685 -88.16442,-207.85415 -85.22878,-216.69430 -69.73657,-222.05019 -72.32757,-235.72288 -79.58827,-241.52506 -75.08138,-253.07676 -88.19178,-263.37014 -106.40479,-261.43862 -130.30174,-264.65315 -136.10576,-259.61255 -146.51035,-268.38721 -158.80391,-264.08475 -169.72323,-270.68655 -176.29173,-265.21273 -152.81852,-246.04166 -140.15993,-243.17115 -140.26264,-243.13851 -160.53993,-236.45328 -162.89919,-227.35976 -148.13461,-222.90668 -153.48907,-210.29874 -148.85550,-196.68217 -130.13737,-201.37913 -130.11524,-201.38445 -126.57137,-189.17905 -133.16018,-174.79960 -133.30786,-174.47033 -147.81549,-168.42567 -149.82467,-162.15718 -143.84843,-153.28851 -146.89529,-146.74180 -155.11223,-155.79147 -152.31881,-135.02095 -156.40749,-123.04550 -148.31118,-101.56880 -136.55669,-85.54381 -127.80513,-88.66132 -113.89350,-88.77800 -129.45034,-110.46672"
          class="ne_110m_admin_0_countries"
          fill-rule="evenodd"
        />
      </g>
      <g>
        <polygon
          points="325.70214,-572.45592 321.03728,-573.98681 320.35922,-570.38443 297.74781,-571.19146 298.95322,-561.27311 310.26792,-566.32879 323.70677,-561.81698 325.70214,-561.55828 325.70214,-572.45592"
          class="ne_110m_admin_0_countries"
          fill-rule="evenodd"
        />
        <polygon
          points="226.96062,-477.23747 226.66596,-470.08130 231.40512,-465.98167 230.67015,-460.29249 240.92375,-456.34512 246.15196,-450.44101 254.97398,-449.04680 256.83270,-444.77371 259.73977,-443.41188 271.72801,-441.41002 283.14961,-432.62711 296.15863,-437.30159 310.12197,-431.64160 307.56781,-421.11104 316.71491,-424.65606 315.28572,-439.12981 312.09958,-442.48641 302.17574,-444.37709 293.30665,-444.44589 275.08155,-454.54205 289.10488,-463.88686 281.60649,-469.28278 272.47982,-471.35818 261.44426,-462.25486 259.37506,-467.58840 265.76057,-479.56530 276.23422,-487.78907 270.97550,-493.84746 282.47710,-501.65949 292.22230,-505.96948 295.26556,-518.00214 278.25157,-515.85111 285.69363,-525.69366 275.28622,-530.32166 285.95354,-547.91770 274.42353,-550.66482 258.22500,-544.16966 248.37428,-528.15072 242.64018,-514.37185 234.18271,-505.70470 223.35157,-494.98146 221.13507,-489.05086 226.96062,-477.23747"
          class="ne_110m_admin_0_countries"
          fill-rule="evenodd"
        />
      </g>
      <polygon
        points="176.34799,-376.30196 165.91318,-378.17322 152.38661,-376.43772 145.36842,-377.83898 142.63574,-382.70692 136.57927,-378.44321 134.44600,-387.73703 143.17384,-396.87974 147.35796,-403.11960 155.54596,-410.21821 162.14465,-414.16743 169.33333,-422.30678 184.52556,-428.34822 183.34407,-432.26564 183.34406,-432.26566 167.27425,-426.51245 157.06976,-420.02633 141.90413,-415.45286 126.99115,-401.11681 129.93322,-399.16361 121.92966,-390.87811 120.87601,-383.64546 110.74475,-381.24263 106.94518,-390.98239 101.77415,-384.17927 101.44946,-376.67016 101.95837,-376.27358 112.57992,-376.01375 114.98402,-372.10582 120.48671,-375.08314 126.46778,-374.85468 125.74349,-368.85649 130.71635,-366.06473 131.15846,-357.22507 142.27543,-350.08035 147.32327,-352.10531 159.70228,-359.75781 172.65018,-362.04178 177.73082,-357.98011 182.68938,-365.66458 188.46568,-370.96072 183.95567,-379.94727 176.34799,-376.30196"
        class="ne_110m_admin_0_countries"
        fill-rule="evenodd"
      />
      <polygon
        points="139.11128,-328.88095 135.71988,-324.59374 143.85113,-323.50383 143.77916,-314.61603 151.83207,-319.08965 157.47119,-320.66051 169.14049,-316.22102 169.61858,-311.75816 175.18881,-310.21537 181.56958,-305.75449 183.33834,-306.85177 189.53928,-303.03174 191.95517,-297.43894 196.33181,-295.29720 212.66412,-298.82090 215.23409,-296.04945 224.25626,-300.17368 226.44217,-305.62419 218.66416,-311.86612 214.73171,-327.58726 208.67957,-343.67231 197.58814,-349.84862 188.18985,-350.50888 177.73100,-357.97996 177.73082,-357.98011 172.65018,-362.04178 159.70228,-359.75781 147.32327,-352.10531 142.27543,-350.08035 138.49332,-343.21038 135.99065,-343.28067 139.11128,-328.88095"
        class="ne_110m_admin_0_countries"
        fill-rule="evenodd"
      />
      <polygon
        points="-179.74221,-167.09483 -184.52747,-177.99283 -176.73350,-179.18738 -168.04201,-185.31352 -168.63254,-200.90974 -181.82978,-218.14896 -207.51601,-226.07793 -225.35122,-218.81099 -209.94073,-199.13857 -211.76540,-176.19540 -191.31403,-163.25917 -180.04912,-155.19502 -179.74221,-167.09483"
        class="ne_110m_admin_0_countries"
        fill-rule="evenodd"
      />
      <g>
        <polygon
          points="60.06752,-352.18273 61.56327,-347.98691 75.89350,-343.33686 79.71521,-350.59811 101.36989,-354.43436 100.70776,-365.17801 105.14752,-374.01420 92.85438,-371.92609 81.12829,-380.51808 82.73748,-391.16714 81.29065,-397.45011 87.16521,-408.07647 102.70099,-417.76827 112.26751,-434.90698 131.86696,-450.51485 144.48447,-448.94020 148.99501,-453.23505 144.96972,-458.08609 160.51929,-464.07234 173.40645,-468.96892 189.15369,-478.14997 191.48250,-481.91593 189.56052,-490.11966 178.85775,-481.39584 164.00409,-479.82182 158.81969,-494.72959 171.99005,-501.17226 171.51945,-512.76023 164.59794,-514.98240 157.79247,-534.79279 150.79288,-537.32933 150.08534,-530.65382 152.20476,-518.56310 155.34123,-513.47309 147.24411,-501.66912 140.88053,-491.30855 133.66761,-489.36344 127.78780,-480.51320 116.78884,-477.61533 108.87959,-469.54563 96.64101,-469.15167 83.16996,-460.28940 67.49963,-447.08621 55.97505,-435.15569 50.09407,-413.96513 42.21853,-411.75410 29.33287,-404.99745 22.24031,-408.08010 13.35937,-418.26837 6.84290,-419.91265 8.57311,-410.49778 0.11769,-407.78186 -3.83558,-391.03001 1.47413,-384.44808 -2.99310,-376.32733 -2.35589,-370.22184 4.14176,-374.84597 11.42323,-373.76848 19.76548,-366.32380 22.43503,-369.69919 29.58833,-368.84768 32.59329,-360.04844 43.74222,-362.37810 50.16803,-358.46226 50.94478,-349.56354 60.06752,-352.18273"
          class="ne_110m_admin_0_countries"
          fill-rule="evenodd"
        />
        <polygon
          points="142.84125,-548.50593 146.20300,-554.99592 143.74391,-566.66641 129.40840,-559.79778 120.24746,-558.27663 94.90315,-549.12497 96.50846,-537.69789 116.91083,-538.03592 134.29676,-533.95063 147.16168,-530.62429 142.84125,-548.50593"
          class="ne_110m_admin_0_countries"
          fill-rule="evenodd"
        />
        <polygon
          points="46.77019,-488.47530 45.45987,-517.43579 37.67843,-516.30744 30.91680,-523.79917 24.32886,-518.13328 23.15969,-491.79058 19.15970,-479.39344 28.26741,-480.30949 36.33242,-473.34464 46.77019,-488.47530"
          class="ne_110m_admin_0_countries"
          fill-rule="evenodd"
        />
      </g>
      <polygon
        points="217.22501,-432.35474 213.03193,-430.85058 208.64109,-425.70964 210.73927,-420.39747 214.22210,-418.18438 215.09292,-410.70356 217.67174,-409.00667 220.44929,-411.60084 223.61923,-412.37540 226.31460,-415.37388 229.08490,-415.87764 232.90856,-419.22856 235.11667,-418.66839 234.38043,-424.20430 232.98983,-427.11173 233.83112,-428.60759 230.44153,-430.11895 221.68200,-435.20419 221.77581,-439.71334 219.71160,-439.90922 217.22501,-432.35474"
        class="ne_110m_admin_0_countries"
        fill-rule="evenodd"
      />
      <polygon
        points="240.60184,-140.39453 232.46440,-149.69799 232.63790,-162.27942 221.14466,-173.48593 209.06702,-176.11002 204.63770,-170.25595 197.79095,-169.36412 195.65512,-164.16258 195.73323,-158.07601 189.62279,-155.83991 176.10104,-154.66102 170.11114,-137.21515 182.44985,-127.98247 202.56735,-125.04836 213.63482,-120.23346 216.35407,-124.22847 222.96232,-124.02843 236.97858,-131.29483 240.60184,-140.39453"
        class="ne_110m_admin_0_countries"
        fill-rule="evenodd"
      />
      <polygon
        points="-16.90504,-281.59935 -13.27592,-280.83765 -10.55492,-285.74259 -11.44392,-295.19481 -15.50880,-295.59910 -18.62305,-293.67511 -16.90504,-281.59935"
        class="ne_110m_admin_0_countries"
        fill-rule="evenodd"
      />
      <polygon
        points="243.23042,-125.82297 236.97858,-131.29483 222.96232,-124.02843 216.35407,-124.22847 213.63482,-120.23346 202.56735,-125.04836 182.44985,-127.98247 170.11114,-137.21515 167.47084,-121.04266 170.59920,-106.49616 179.94372,-96.99239 192.51919,-110.95799 201.72788,-108.43933 200.12598,-91.61420 208.85906,-85.54203 214.45221,-86.90671 226.23245,-92.22633 235.59930,-89.73076 242.42412,-93.03444 246.28982,-102.92208 253.55834,-114.19820 243.23042,-125.82297"
        class="ne_110m_admin_0_countries"
        fill-rule="evenodd"
      />
      <polygon
        points="-266.13245,-610.42937 -256.20128,-606.24037 -239.99228,-585.81470 -232.02359,-573.40513 -218.95096,-575.71944 -209.65882,-586.72063 -192.36209,-587.74972 -174.36820,-595.12642 -166.55073,-596.34739 -161.69331,-610.42937 -266.13245,-610.42937"
        class="ne_110m_admin_0_countries"
        fill-rule="evenodd"
      />
      <polygon
        points="325.70214,-312.23446 324.40592,-310.84801 321.91437,-313.39794 324.03968,-316.79884 322.06803,-324.57742 321.63354,-332.43771 318.62179,-335.76439 313.27705,-327.04257 312.24209,-317.73931 309.15149,-308.76450 297.45676,-298.74493 290.55491,-291.21812 284.53603,-286.23151 279.73979,-285.34538 282.22961,-281.37980 290.86880,-276.78656 302.91662,-280.33937 308.84550,-279.43928 316.78463,-283.12004 317.90206,-290.42418 324.03624,-292.24574 325.70214,-295.08243 325.70214,-312.23446"
        class="ne_110m_admin_0_countries"
        fill-rule="evenodd"
      />
      <polygon
        points="222.96506,-456.32974 218.99883,-447.56276 219.71163,-439.90932 219.71160,-439.90922 221.77581,-439.71334 221.68200,-435.20419 230.44153,-430.11895 233.83112,-428.60759 238.97090,-426.29162 246.21946,-424.44136 255.58282,-429.59270 259.73977,-443.41188 256.83270,-444.77371 254.97398,-449.04680 246.15196,-450.44101 240.92375,-456.34512 230.67015,-460.29249 222.96506,-456.32974"
        class="ne_110m_admin_0_countries"
        fill-rule="evenodd"
      />
      <polygon
        points="204.71390,-428.34393 203.01791,-424.49016 197.91480,-436.19500 200.12102,-442.83965 196.49374,-441.73035 190.88574,-435.44861 183.34407,-432.26564 184.52556,-428.34822 184.99241,-416.19413 189.28384,-410.40708 191.87742,-407.97930 196.62191,-410.96217 199.40414,-413.53884 204.94185,-414.95769 211.70373,-418.33407 210.73927,-420.39747 208.64109,-425.70964 204.71390,-428.34393"
        class="ne_110m_admin_0_countries"
        fill-rule="evenodd"
      />
      <polygon
        points="-18.96163,-261.11964 -27.32109,-251.47499 -39.99165,-255.54407 -49.81624,-253.41305 -49.81567,-253.41261 -42.60405,-247.80157 -29.86718,-216.44513 -11.94380,-207.77032 -1.22458,-208.45434 1.19730,-215.77029 -2.08515,-235.56499 -5.49320,-243.68515 -13.52987,-243.61802 -11.53646,-266.27342 -18.96163,-261.11964"
        class="ne_110m_admin_0_countries"
        fill-rule="evenodd"
      />
      <polygon
        points="53.81572,21.94938 49.74565,4.49442 52.32569,-24.92539 59.85279,-35.64043 58.17132,-61.76793 49.94665,-77.40461 45.70039,-90.30388 37.49277,-77.23121 15.90743,-103.26738 0.56447,-108.53898 -15.25007,-97.26333 -18.80606,-73.60853 -20.95846,-22.60089 -11.14113,-8.50539 15.53252,10.29332 24.67642,21.94938 53.81572,21.94938"
        class="ne_110m_admin_0_countries"
        fill-rule="evenodd"
      />
      <polygon
        points="211.69855,-185.33497 217.01843,-192.57198 218.85725,-200.99462 212.11232,-207.02157 218.26982,-215.91467 220.61651,-225.24460 231.45287,-242.11434 231.37283,-248.34594 225.24296,-252.30423 216.65579,-272.52038 222.22609,-281.25429 218.93692,-280.66352 204.13568,-275.21168 194.75462,-280.11794 187.81222,-279.14076 180.40929,-285.14326 172.13146,-278.78477 166.89890,-282.60335 165.90994,-281.44158 157.91327,-271.93443 147.49567,-272.15591 145.24404,-265.65033 135.54670,-264.54049 134.22676,-270.33467 126.21929,-266.84680 126.34446,-260.84783 115.95347,-260.18852 108.76582,-253.98868 101.83043,-240.84823 102.10938,-233.33271 97.69012,-222.15924 92.21102,-214.94713 95.26928,-208.85219 91.20948,-198.18016 99.27260,-190.98568 117.78712,-178.77552 132.49569,-169.40531 145.41309,-171.18277 147.16872,-176.25944 159.23842,-174.56302 175.01233,-174.24586 197.79095,-169.36412 204.63770,-170.25595 209.06702,-176.11002 211.69855,-185.33497"
        class="ne_110m_admin_0_countries"
        fill-rule="evenodd"
      />
      <polygon
        points="-251.65242,-427.42178 -244.55205,-425.66893 -242.70214,-436.90767 -233.26865,-438.75341 -230.01541,-436.58562 -220.85439,-439.08113 -218.32066,-450.63245 -226.85106,-455.06113 -230.18048,-471.74009 -233.43822,-474.37773 -236.02044,-484.39408 -243.52576,-484.78185 -239.32396,-498.94626 -246.69131,-512.19295 -242.05460,-519.72221 -245.51355,-525.14319 -253.44224,-532.00686 -253.40013,-539.44087 -261.47840,-543.67297 -270.00007,-538.77211 -279.43373,-539.25814 -273.20486,-522.97640 -271.98363,-509.42867 -279.11257,-505.80989 -281.33143,-496.80778 -276.88621,-483.11669 -268.59568,-476.81306 -265.56297,-468.43770 -259.41331,-456.34270 -257.84683,-447.23917 -259.41119,-438.90849 -258.56152,-431.59065 -251.65242,-427.42178"
        class="ne_110m_admin_0_countries"
        fill-rule="evenodd"
      />
      <polygon
        points="325.70214,-371.70076 324.76514,-371.73962 311.67818,-367.24211 295.21933,-376.86165 289.05186,-384.14366 266.34794,-388.46429 253.84509,-387.82863 248.24885,-390.67343 241.99295,-382.90303 238.43092,-379.79544 241.19136,-375.48085 236.90623,-373.62888 233.13244,-379.36085 223.06101,-374.96595 220.16501,-366.44605 210.07820,-363.19453 207.14629,-356.74302 197.58814,-349.84862 208.67957,-343.67231 214.73171,-327.58726 218.66416,-311.86612 226.44217,-305.62419 231.58431,-299.78978 240.84463,-300.17740 249.91301,-298.16167 257.69829,-301.72263 261.73175,-297.32354 271.60427,-292.69233 273.85652,-286.89656 279.73979,-285.34538 284.53603,-286.23151 290.55491,-291.21812 297.45676,-298.74493 309.15149,-308.76450 312.24209,-317.73931 313.27705,-327.04257 318.62179,-335.76439 325.70214,-337.53098 325.70214,-371.70076"
        class="ne_110m_admin_0_countries"
        fill-rule="evenodd"
      />
      <g>
        <polygon
          points="325.70214,21.94938 325.70214,-154.56182 320.77683,-150.75267 311.34524,-149.98987 310.80753,-146.04032 304.62754,-143.96566 292.64857,-132.98872 293.36273,-126.59338 289.02084,-117.29458 276.00798,-116.03885 270.63397,-120.42469 267.39304,-115.77471 253.55834,-114.19820 246.28982,-102.92208 242.42412,-93.03444 235.59930,-89.73076 238.56355,-81.70672 229.75762,-62.99281 234.04822,-48.64288 231.36801,-45.42732 231.36806,-45.42723 240.02210,-30.20952 226.06150,-23.41781 226.06148,-23.41779 239.75472,10.21949 243.78714,21.94938 325.70214,21.94938"
          class="ne_110m_admin_0_countries"
          fill-rule="evenodd"
        />
        <polygon
          points="325.70214,-184.09770 323.86696,-184.39098 323.86666,-184.39103 316.32735,-172.33670 311.12521,-166.51461 312.85357,-163.79998 323.02007,-161.09510 325.70214,-155.92514 325.70214,-184.09770"
          class="ne_110m_admin_0_countries"
          fill-rule="evenodd"
        />
        <polygon
          points="189.62279,-155.83991 195.73323,-158.07601 195.65512,-164.16258 197.79095,-169.36412 175.01233,-174.24586 159.23842,-174.56302 160.44728,-164.67437 176.10104,-154.66102 189.62279,-155.83991"
          class="ne_110m_admin_0_countries"
          fill-rule="evenodd"
        />
      </g>
      <polygon
        points="239.23480,-388.50165 242.22892,-395.96103 251.68491,-403.51756 247.16933,-411.41627 245.95205,-418.72820 248.18552,-420.90008 246.21946,-424.44136 238.97090,-426.29162 233.83112,-428.60759 232.98983,-427.11173 234.38043,-424.20430 235.11667,-418.66839 232.90856,-419.22856 229.08490,-415.87764 226.31460,-415.37388 223.61923,-412.37540 220.44929,-411.60084 217.67174,-409.00667 215.09292,-410.70356 214.22210,-418.18438 210.73927,-420.39747 211.70373,-418.33407 204.94185,-414.95769 199.40414,-413.53884 196.62191,-410.96217 191.87742,-407.97930 195.38344,-406.42590 195.94754,-395.99593 187.17829,-389.00969 189.45148,-378.98723 183.95561,-379.94738 183.95567,-379.94727 188.46568,-370.96072 182.68938,-365.66458 177.73082,-357.98011 177.73100,-357.97996 188.18985,-350.50888 197.58814,-349.84862 207.14629,-356.74302 210.07820,-363.19453 220.16501,-366.44605 223.06101,-374.96595 233.13244,-379.36085 236.90623,-373.62888 241.19136,-375.48085 238.43092,-379.79544 241.99295,-382.90303 239.23480,-388.50165"
        class="ne_110m_admin_0_countries"
        fill-rule="evenodd"
      />
      <polygon
        points="141.37071,-307.39235 142.15087,-304.52472 143.52461,-299.55045 149.82953,-299.04780 154.32561,-296.14676 154.41548,-294.10512 156.95395,-292.69456 157.14591,-287.70164 160.20803,-286.28912 161.77379,-282.11775 165.90994,-281.44158 166.89890,-282.60335 172.13146,-278.78477 180.40929,-285.14326 187.81222,-279.14076 194.75462,-280.11794 204.13568,-275.21168 218.93692,-280.66352 216.22405,-286.96663 215.23409,-296.04945 212.66412,-298.82090 196.33181,-295.29720 191.95517,-297.43894 189.53928,-303.03174 183.33834,-306.85177 181.56958,-305.75449 175.18881,-310.21537 169.61858,-311.75816 169.14049,-316.22102 157.47119,-320.66051 151.83207,-319.08965 143.77916,-314.61603 141.37071,-307.39235"
        class="ne_110m_admin_0_countries"
        fill-rule="evenodd"
      />
      <polygon
        points="113.80129,-354.91761 120.76697,-349.25610 133.62332,-347.24091 135.99065,-343.28067 138.49332,-343.21038 142.27543,-350.08035 131.15846,-357.22507 130.71635,-366.06473 125.74349,-368.85649 126.46778,-374.85468 120.48671,-375.08314 114.98402,-372.10582 112.57992,-376.01375 101.95837,-376.27358 105.14752,-374.01420 100.70776,-365.17801 101.36989,-354.43436 113.80129,-354.91761"
        class="ne_110m_admin_0_countries"
        fill-rule="evenodd"
      />
      <polygon
        points="124.77314,21.94938 110.35924,2.39849 107.19370,-29.60156 116.91879,-43.95090 129.07046,-54.46686 122.65869,-80.50128 111.66122,-87.20048 111.95075,-124.14057 107.65839,-145.21311 92.79191,-144.74374 87.58972,-162.57494 73.41946,-164.81160 67.96392,-144.62697 56.28960,-120.65705 45.70039,-90.30388 49.94665,-77.40461 58.17132,-61.76793 59.85279,-35.64043 52.32569,-24.92539 49.74565,4.49442 53.81572,21.94938 124.77314,21.94938"
        class="ne_110m_admin_0_countries"
        fill-rule="evenodd"
      />
      <polygon
        points="22.53764,-610.42937 24.93293,-599.39351 21.71953,-578.36889 25.12801,-566.98881 44.08371,-557.60396 56.48430,-559.77439 56.43991,-570.93335 71.04366,-562.11210 72.52806,-566.26998 64.20776,-577.51783 64.57660,-587.73055 71.08151,-592.90698 69.80765,-610.42937 22.53764,-610.42937"
        class="ne_110m_admin_0_countries"
        fill-rule="evenodd"
      />
      <g>
        <polygon
          points="325.70214,-448.12436 320.65701,-455.40096 313.00987,-446.89743 312.09958,-442.48641 315.28572,-439.12981 316.71491,-424.65606 307.56781,-421.11104 321.76233,-410.23796 325.70214,-409.97110 325.70214,-448.12436"
          class="ne_110m_admin_0_countries"
          fill-rule="evenodd"
        />
        <polygon
          points="325.70214,-473.14552 321.41980,-470.74829 325.70214,-462.23868 325.70214,-473.14552"
          class="ne_110m_admin_0_countries"
          fill-rule="evenodd"
        />
      </g>
      <g>
        <polygon
          points="325.70214,-295.08243 324.03624,-292.24574 317.90206,-290.42418 316.78463,-283.12004 308.84550,-279.43928 302.91662,-280.33937 290.86880,-276.78656 282.22961,-281.37980 279.73979,-285.34538 273.85652,-286.89656 271.60427,-292.69233 261.73175,-297.32354 257.69829,-301.72263 249.91301,-298.16167 240.84463,-300.17740 231.58431,-299.78978 226.44217,-305.62419 224.25626,-300.17368 215.23409,-296.04945 216.22405,-286.96663 218.93692,-280.66352 222.22609,-281.25429 216.65579,-272.52038 225.24296,-252.30423 231.37283,-248.34594 231.45287,-242.11434 220.61651,-225.24460 226.70056,-223.00028 232.51979,-215.62513 242.46594,-212.71026 255.97240,-210.99928 271.78355,-212.08219 282.09411,-209.59607 287.83587,-211.16482 291.60312,-206.11020 296.45078,-209.91659 307.78247,-205.29988 313.53977,-205.64190 311.00619,-195.03538 313.44053,-189.24722 323.86696,-184.39098 325.70214,-184.09770 325.70214,-295.08243"
          class="ne_110m_admin_0_countries"
          fill-rule="evenodd"
        />
        <polygon
          points="325.70214,-337.53098 318.62179,-335.76439 321.63354,-332.43771 322.06803,-324.57742 324.03968,-316.79884 321.91437,-313.39794 324.40592,-310.84801 325.70214,-312.23446 325.70214,-337.53098"
          class="ne_110m_admin_0_countries"
          fill-rule="evenodd"
        />
      </g>
    </g>
    <g class="name continent installations">
      <circle
        cx="-95.89095"
        cy="-246.56875"
        class="janeway_installations"
        r="1"
      />
      <circle
        cx="-107.55907"
        cy="-122.43244"
        class="janeway_installations"
        r="1"
      />
      <circle
        cx="-97.46871"
        cy="-261.17101"
        class="janeway_installations"
        r="1"
      />
      <circle
        cx="23.01533"
        cy="-286.2024"
        class="janeway_installations"
        r="1"
      />
      <circle
        cx="-170.7145"
        cy="-196.58944"
        class="janeway_installations"
        r="1"
      />
      <circle
        cx="-81.39747"
        cy="-239.59281"
        class="janeway_installations"
        r="1"
      />
      <circle
        cx="-44.66854"
        cy="-260.04496"
        class="janeway_installations"
        r="1"
      />
      <circle
        cx="-112.71758"
        cy="-198.24589"
        class="janeway_installations"
        r="1"
      />
      <circle
        cx="17.79807"
        cy="-283.87542"
        class="janeway_installations"
        r="1"
      />
      <circle
        cx="-119.61235"
        cy="-200.92978"
        class="janeway_installations"
        r="1"
      />
      <circle
        cx="-109.29888"
        cy="-204.43681"
        class="janeway_installations"
        r="1"
      />
      <circle
        cx="-110.46597"
        cy="-239.78038"
        class="janeway_installations"
        r="1"
      />
      <circle
        cx="-27.9121"
        cy="-232.02864"
        class="janeway_installations"
        r="1"
      />
      <circle
        cx="-136.86145"
        cy="-242.44906"
        class="janeway_installations"
        r="1"
      />
      <circle
        cx="-119.37836"
        cy="-253.608"
        class="janeway_installations"
        r="1"
      />
      <circle
        cx="102.6024"
        cy="-372.97695"
        class="janeway_installations"
        r="1"
      />
      <circle
        cx="134.84424"
        cy="-313.92362"
        class="janeway_installations"
        r="1"
      />
    </g>
  </g>
</svg>
