<svg
  xmlns="http://www.w3.org/2000/svg"
  width="1134.010338758898"
  height="881.9369577808494"
  baseProfile="full"
  version="1.1"
  viewBox="-567.00517,-30.30319,1134.01034,881.93696"
>
  <defs>
    <style type="text/css" />
  </defs>
  <g transform="scale(1,-1)">
    <g
      class="scalerank featurecla LABELRANK SOVEREIGNT SOV_A3 ADM0_DIF LEVEL TYPE ADMIN ADM0_A3 GEOU_DIF GEOUNIT GU_A3 SU_DIF SUBUNIT SU_A3 BRK_DIFF NAME NAME_LONG BRK_A3 BRK_NAME BRK_GROUP ABBREV POSTAL FORMAL_EN FORMAL_FR NAME_CIAWF NOTE_ADM0 NOTE_BRK NAME_SORT NAME_ALT MAPCOLOR7 MAPCOLOR8 MAPCOLOR9 MAPCOLOR13 POP_EST POP_RANK GDP_MD_EST POP_YEAR LASTCENSUS GDP_YEAR ECONOMY INCOME_GRP WIKIPEDIA FIPS_10_ ISO_A2 ISO_A3 ISO_A3_EH ISO_N3 UN_A3 WB_A2 WB_A3 WOE_ID WOE_ID_EH WOE_NOTE ADM0_A3_IS ADM0_A3_US ADM0_A3_UN ADM0_A3_WB CONTINENT REGION_UN SUBREGION REGION_WB NAME_LEN LONG_LEN ABBREV_LEN TINY HOMEPART MIN_ZOOM MIN_LABEL MAX_LABEL"
    >
      <g>
        <polygon
          points="337.81762,-674.33353 330.65567,-663.12025 322.34045,-658.34663 324.09250,-644.26926 329.98556,-644.05755 339.95846,-660.21018 342.37582,-672.39026 337.81762,-674.33353"
          class="ne_110m_admin_0_countries"
          fill-rule="evenodd"
        />
        <polygon
          points="305.94693,-621.37623 303.28596,-613.87326 311.79344,-610.65153 324.25058,-609.02371 325.82241,-614.33882 305.94693,-621.37623"
          class="ne_110m_admin_0_countries"
          fill-rule="evenodd"
        />
        <polygon
          points="340.78498,-626.64320 336.79976,-624.63674 335.01779,-613.67838 325.07748,-607.03348 324.59353,-604.64871 341.14359,-611.19475 340.78498,-626.64320"
          class="ne_110m_admin_0_countries"
          fill-rule="evenodd"
        />
      </g>
      <polygon
        points="124.44778,-851.83376 124.46777,-847.37980 123.53199,-829.89863 123.16371,-826.67457 125.64432,-825.50140 129.63078,-827.85205 136.24062,-814.09891 140.19140,-813.52888 140.50023,-816.73658 144.47272,-816.54743 144.56510,-822.53669 141.85412,-832.28752 143.94811,-835.55672 142.30259,-843.60202 143.79486,-845.61515 142.88344,-851.83376 124.44778,-851.83376"
        class="ne_110m_admin_0_countries"
        fill-rule="evenodd"
      />
      <g>
        <polygon
          points="-467.75356,30.50319 -459.59086,28.34123 -472.71557,7.02717 -468.77858,-13.46446 -473.66292,-11.40834 -477.20420,0.79993 -477.77135,11.88849 -481.14309,20.70759 -479.52754,30.44832 -479.49612,30.50319 -467.75356,30.50319"
          class="ne_110m_admin_0_countries"
          fill-rule="evenodd"
        />
        <polygon
          points="23.59618,30.50319 26.71378,19.21566 32.79217,2.41610 49.56572,7.43866 72.60779,-0.97687 85.39569,-8.55370 95.01760,-18.29447 111.06631,-22.96716 125.19020,-30.86118 145.94496,-29.71950 159.79146,-30.04063 160.30713,-49.13974 167.27301,-70.31050 180.14718,-92.97722 202.99420,-110.14937 212.06769,-101.52209 215.34064,-78.40148 202.72173,-45.72857 191.92857,-35.86299 210.12990,-22.26700 221.20636,-4.46121 224.92759,12.00321 221.02846,26.39007 218.22201,30.50319 476.15031,30.50319 478.05174,28.12506 488.43814,29.51296 496.54689,24.13882 507.39363,2.30617 501.84254,-9.04382 496.02598,-19.82509 478.46902,-35.49624 469.11622,-58.25429 448.65026,-69.82780 419.45541,-75.55299 399.89481,-82.00744 386.81790,-87.79245 380.34236,-105.88580 366.01607,-120.05083 354.05738,-152.69892 343.11593,-175.88915 354.11602,-169.35130 368.71383,-136.29949 391.84965,-110.76176 411.09079,-102.29091 426.19930,-108.20924 418.10452,-126.01889 429.66193,-146.24780 439.27160,-159.83299 460.77539,-163.51098 482.61497,-152.27539 487.81931,-124.86619 494.31511,-138.79046 505.93427,-142.43895 493.88663,-161.94530 467.16482,-185.12392 455.86889,-198.06816 444.60764,-217.80307 433.11814,-219.91538 427.14653,-203.16463 446.35264,-178.50355 423.97770,-186.63545 408.96874,-194.05007 396.21917,-185.48463 387.93754,-157.89930 380.05287,-153.87500 371.77981,-160.03490 365.64879,-155.99774 359.32447,-174.35119 359.34929,-191.37747 356.78044,-202.00356 351.51981,-206.76984 347.18054,-208.99442 347.03622,-214.39749 320.33475,-221.01579 298.25505,-226.20178 292.48368,-231.41630 280.00119,-249.48045 278.46939,-251.45758 275.30011,-260.42954 261.56378,-263.06900 246.84906,-265.83188 240.63469,-270.29378 243.77180,-273.93067 246.22836,-279.99225 246.29928,-282.13624 228.05744,-295.74180 212.73286,-301.43107 196.34193,-315.04065 192.44448,-315.56407 186.74055,-312.98543 184.62037,-310.24444 184.68341,-308.03588 187.13549,-300.33192 192.81122,-287.95444 195.56167,-275.06745 190.06551,-257.40850 184.34098,-238.91720 167.78493,-231.07533 169.12626,-227.13050 166.67257,-224.83466 162.67094,-225.32017 159.34914,-222.34526 158.03641,-217.46303 155.46645,-219.96158 151.50014,-219.75639 152.15312,-217.57632 148.51257,-215.88915 146.50777,-210.51456 134.63431,-204.94717 122.36141,-199.03844 107.71596,-192.07416 93.82357,-185.40277 81.53214,-192.24625 76.89315,-192.73228 59.14487,-188.11462 47.76149,-191.33935 33.80781,-185.17833 19.31870,-182.08225 9.45681,-180.88181 5.06086,-177.30248 2.54153,-165.60406 -2.17486,-165.70717 -2.23037,-173.90176 -31.24640,-173.51492 -79.17224,-171.50180 -126.66998,-167.74958 -168.48681,-162.99046 -210.10490,-156.89336 -250.81709,-149.59411 -292.61952,-140.70166 -306.03602,-137.54272 -346.34141,-127.14572 -384.56963,-116.00253 -386.35162,-115.39548 -405.57812,-87.19971 -411.93046,-75.29737 -432.29544,-58.71031 -432.80327,-38.23530 -426.43382,-26.45404 -439.00407,-11.87823 -434.85074,5.29541 -443.55257,25.74517 -441.77501,30.50319 23.59618,30.50319"
          class="ne_110m_admin_0_countries"
          fill-rule="evenodd"
        />
        <polygon
          points="567.20517,-75.27071 564.68174,-74.87640 557.18005,-98.55306 548.98601,-101.42589 554.21012,-88.17084 539.52823,-89.10411 525.90422,-96.41038 499.95166,-106.49986 495.56861,-101.49317 500.97381,-91.23217 493.09084,-88.20327 499.16047,-71.85752 499.08767,-34.92210 501.96053,-20.35853 509.64670,-8.85450 515.71368,-7.16219 515.74667,-13.55616 514.66014,-28.87323 513.86868,-49.68330 519.21000,-39.44536 529.53227,-39.85089 528.15654,-48.64127 541.81999,-48.87595 545.47061,-41.46057 560.83404,-41.47676 563.61100,-57.43119 567.20517,-53.73630 567.20517,-75.27071"
          class="ne_110m_admin_0_countries"
          fill-rule="evenodd"
        />
        <polygon
          points="459.20883,-148.90327 471.73814,-143.72851 467.95198,-154.33147 463.29748,-157.47701 442.77876,-155.19306 437.04130,-149.67872 440.10478,-141.72687 448.28582,-149.76427 459.20883,-148.90327"
          class="ne_110m_admin_0_countries"
          fill-rule="evenodd"
        />
        <polygon
          points="448.59047,-92.47090 429.29519,-92.28290 413.80721,-86.95113 417.74667,-83.70404 436.68201,-82.73190 453.10416,-86.22713 454.85229,-89.75204 448.59047,-92.47090"
          class="ne_110m_admin_0_countries"
          fill-rule="evenodd"
        />
        <polygon
          points="-404.35912,-123.80849 -423.31369,-107.34033 -424.83529,-98.81947 -434.13891,-87.64394 -434.44213,-81.06954 -446.48467,-72.58547 -447.36734,-59.81458 -444.52313,-55.57516 -432.69952,-64.91069 -425.89022,-70.80055 -414.46481,-77.18352 -412.41691,-85.68434 -409.15253,-97.48206 -398.64184,-110.18113 -396.68080,-123.15137 -404.35912,-123.80849"
          class="ne_110m_admin_0_countries"
          fill-rule="evenodd"
        />
      </g>
      <polygon
        points="269.13717,-698.68804 284.60758,-696.59247 304.23170,-700.85363 313.38522,-707.30572 331.38190,-701.67659 339.27062,-705.38143 358.50914,-715.34367 372.77250,-722.47286 379.26512,-720.85219 392.03519,-722.70900 391.84272,-728.99056 406.75033,-726.70469 423.79247,-732.01529 422.54195,-737.52628 409.77467,-743.19646 396.43621,-747.16743 382.18158,-748.35873 353.62199,-756.09750 364.88104,-741.58400 355.62512,-737.61887 342.41555,-738.60788 334.36918,-733.70236 327.47629,-722.40726 316.35997,-725.18983 296.83540,-722.54193 290.15815,-719.01524 263.75600,-719.58463 256.23803,-716.39582 262.91759,-710.02323 243.36015,-711.59769 230.50903,-724.52789 222.28360,-725.83361 220.04131,-731.40177 210.40191,-734.89087 201.60343,-733.80233 211.42062,-726.00757 214.84626,-717.78932 223.24783,-711.97467 232.82861,-706.56555 247.49108,-702.57454 251.94100,-699.58705 269.13717,-698.68804"
        class="ne_110m_admin_0_countries"
        fill-rule="evenodd"
      />
      <polygon
        points="477.63449,-727.93856 493.23137,-723.96808 506.50081,-726.21011 511.61116,-724.24126 517.30160,-730.70531 528.11539,-727.21532 529.25110,-733.66931 538.37683,-731.87977 550.47614,-736.72614 545.51229,-747.49113 534.59885,-745.65560 525.58618,-749.15434 518.66150,-749.99098 516.07447,-754.85651 508.64489,-758.27566 504.17952,-753.95422 498.28472,-758.78151 493.93373,-775.50042 487.78987,-773.46183 485.18748,-767.59399 484.12754,-761.69954 477.27800,-756.63928 481.30555,-751.80350 480.76112,-743.25462 476.05627,-732.17912 477.63449,-727.93856"
        class="ne_110m_admin_0_countries"
        fill-rule="evenodd"
      />
      <polygon
        points="83.75872,-851.83376 83.50061,-851.68212 75.29090,-844.62285 84.87254,-844.17977 84.35538,-831.76841 104.03244,-830.78625 123.53199,-829.89863 124.46777,-847.37980 124.44778,-851.83376 83.75872,-851.83376"
        class="ne_110m_admin_0_countries"
        fill-rule="evenodd"
      />
      <polygon
        points="480.76112,-743.25462 481.30555,-751.80350 477.27800,-756.63928 484.12754,-761.69954 485.18748,-767.59399 470.73034,-767.37670 461.45963,-771.21919 448.61781,-772.65370 439.96676,-778.88938 427.47257,-774.70310 427.72175,-767.39499 447.16829,-766.04130 462.94885,-764.06797 469.09809,-757.52308 457.58497,-750.57942 455.76492,-742.42907 442.27559,-742.15951 445.40937,-735.22756 457.86059,-733.20527 476.05627,-732.17912 480.76112,-743.25462"
        class="ne_110m_admin_0_countries"
        fill-rule="evenodd"
      />
      <polygon
        points="377.16346,-783.98257 389.13459,-786.97302 393.75595,-792.18169 379.30288,-795.50075 373.71349,-800.34320 361.44480,-799.07767 348.15853,-793.36974 349.73889,-787.97953 358.11966,-784.87798 362.94366,-784.72323 377.16346,-783.98257"
        class="ne_110m_admin_0_countries"
        fill-rule="evenodd"
      />
      <polygon
        points="-107.95886,-851.83376 -123.83408,-843.97296 -140.82237,-832.25378 -145.70887,-825.99607 -157.36479,-823.77609 -178.19844,-814.99717 -185.94662,-804.21231 -206.94008,-789.58666 -215.72683,-774.77127 -219.38668,-763.67809 -212.35879,-762.34360 -213.75476,-755.95570 -208.47497,-750.88728 -207.55163,-743.45577 -213.24054,-733.04904 -214.06430,-724.31320 -219.46201,-712.74020 -234.18558,-689.41847 -251.52478,-670.23553 -259.02707,-655.73423 -274.16402,-644.67792 -276.86869,-638.99906 -271.96315,-626.47476 -280.80136,-620.07423 -290.20563,-608.10242 -292.39507,-592.76659 -302.05390,-589.35592 -310.78982,-576.49817 -317.49574,-564.83052 -317.07645,-558.21305 -323.81445,-540.77432 -327.05713,-523.75089 -325.22779,-515.89799 -336.34022,-505.17729 -342.39341,-504.85502 -351.20036,-497.08314 -355.81024,-504.79226 -355.02211,-515.26074 -356.60635,-531.04939 -352.26667,-540.83230 -341.80161,-557.79795 -339.78573,-563.26492 -337.31048,-565.29361 -336.30802,-572.87794 -332.99772,-573.22866 -331.90389,-587.31684 -327.29873,-593.67504 -324.73167,-601.78462 -314.93917,-614.54924 -312.15145,-635.11581 -308.11010,-645.28792 -304.48456,-656.04797 -305.31377,-667.33338 -296.10901,-669.58697 -289.88522,-680.44672 -284.29912,-691.01988 -285.36775,-694.74364 -294.87180,-701.22875 -298.34186,-700.56257 -301.39442,-686.83009 -312.08548,-672.63293 -324.20667,-659.98982 -333.04743,-652.85074 -329.55867,-637.63434 -330.31244,-625.76738 -338.05352,-617.59024 -349.09192,-605.76660 -352.09682,-607.94533 -355.69663,-601.57342 -366.10554,-594.16445 -374.39673,-579.81142 -372.71734,-578.54499 -365.39928,-581.34886 -356.95578,-575.06560 -354.32708,-565.88804 -365.15585,-548.21046 -374.46097,-540.18923 -378.15791,-525.89171 -381.64328,-510.96020 -385.93548,-492.73399 -388.58498,-472.72576 -368.61661,-475.77535 -346.18403,-478.43312 -348.66630,-482.08394 -324.44033,-497.50516 -286.96021,-519.50479 -251.61355,-525.10453 -237.49388,-527.18084 -236.23416,-518.62437 -205.49392,-522.73912 -199.90001,-530.90914 -191.52311,-538.56755 -181.85385,-548.93148 -177.00887,-560.47978 -173.65931,-572.44840 -164.80525,-579.71288 -150.09471,-587.40888 -137.12710,-571.80669 -122.13658,-572.53975 -109.77076,-581.78510 -101.38105,-596.75041 -95.63946,-609.46499 -85.19053,-622.06885 -81.73108,-637.07107 -76.84259,-647.26878 -62.16852,-654.42947 -48.67599,-659.52596 -41.15952,-659.07640 -49.12885,-677.57465 -52.97223,-692.84289 -55.26017,-721.50886 -57.50100,-731.95377 -54.37313,-743.81629 -48.39812,-754.52355 -44.74975,-771.42961 -31.44933,-787.89393 -26.80992,-800.41791 -18.79668,-811.28760 3.36799,-817.19314 12.07460,-826.34893 30.41931,-820.00765 46.34641,-817.47652 61.89138,-813.10023 74.88994,-808.88138 87.73672,-799.40468 92.06724,-786.45623 92.86658,-768.12256 96.07153,-761.61360 109.51020,-755.20118 130.58113,-748.82902 148.51461,-748.25383 160.59940,-745.42176 165.83737,-749.57128 166.06446,-760.02835 156.20028,-773.82561 152.38443,-787.44175 156.49061,-790.92562 154.14891,-800.59598 150.26272,-818.06783 144.53722,-812.84407 140.19140,-813.52888 136.24062,-814.09891 129.63078,-827.85205 125.64432,-825.50140 123.16371,-826.67457 123.53199,-829.89863 104.03244,-830.78625 84.35538,-831.76841 84.87254,-844.17977 75.29090,-844.62285 83.50061,-851.68212 83.75872,-851.83376 -107.95886,-851.83376"
        class="ne_110m_admin_0_countries"
        fill-rule="evenodd"
      />
      <polygon
        points="-346.34141,-127.14572 -306.03602,-137.54272 -292.61952,-140.70166 -250.81709,-149.59411 -210.10490,-156.89336 -168.48681,-162.99046 -126.66998,-167.74958 -79.17224,-171.50180 -31.24640,-173.51492 -2.23037,-173.90176 -2.17486,-165.70717 2.54153,-165.60406 5.06086,-177.30248 9.45681,-180.88181 19.31870,-182.08225 33.80781,-185.17833 47.76149,-191.33935 59.14487,-188.11462 76.89315,-192.73228 81.53214,-192.24625 93.82357,-185.40277 107.71596,-192.07416 122.36141,-199.03844 134.63431,-204.94717 146.50777,-210.51456 148.51257,-215.88915 152.15312,-217.57632 151.50014,-219.75639 155.46645,-219.96158 158.03641,-217.46303 159.34914,-222.34526 162.67094,-225.32017 166.67257,-224.83466 169.12626,-227.13050 167.78493,-231.07533 184.34098,-238.91720 190.06551,-257.40850 195.56167,-275.06745 192.81122,-287.95444 187.13549,-300.33192 184.68341,-308.03588 184.62037,-310.24444 186.74055,-312.98543 192.44448,-315.56407 196.34193,-315.04065 212.73286,-301.43107 228.05744,-295.74180 246.29928,-282.13624 246.22836,-279.99225 243.77180,-273.93067 240.63469,-270.29378 246.84906,-265.83188 261.56378,-263.06900 275.30011,-260.42954 278.46939,-251.45758 280.00119,-249.48045 292.48368,-231.41630 298.25505,-226.20178 320.33475,-221.01579 347.03622,-214.39749 347.18054,-208.99442 351.51981,-206.76984 356.78044,-202.00356 359.34929,-191.37747 359.32447,-174.35119 365.64879,-155.99774 371.77981,-160.03490 380.05287,-153.87500 387.93754,-157.89930 396.21917,-185.48463 408.96874,-194.05007 413.47260,-199.87758 401.08285,-214.29144 388.19960,-225.60448 374.41952,-235.91003 369.85842,-250.04483 368.55402,-255.27076 371.25333,-266.04405 379.08838,-275.42831 385.49402,-274.22972 381.89814,-267.29660 387.64200,-270.53979 388.02278,-276.63268 378.68097,-282.68291 371.27613,-284.22368 360.91492,-290.66195 354.51868,-293.34611 345.85651,-296.53373 334.42857,-305.46483 356.10203,-296.19377 361.61314,-298.89266 341.50849,-310.26427 331.64580,-312.60665 331.53161,-310.00206 328.09610,-316.72536 332.88628,-316.61543 332.85124,-332.00721 324.84110,-350.25109 322.51458,-345.27452 318.80131,-344.96924 312.51473,-340.97879 318.16042,-351.26274 322.89963,-354.03770 324.81542,-361.68790 321.36442,-370.72307 315.66288,-388.94410 314.00858,-388.44090 316.13889,-373.50293 306.28224,-367.40499 300.94978,-350.80540 299.65649,-360.26844 305.70896,-372.54384 294.40094,-371.46644 306.84400,-375.83120 311.50371,-395.13290 316.49950,-395.57797 319.67281,-402.28886 326.27507,-422.22986 318.73796,-439.60040 302.42641,-449.12359 293.47639,-463.26623 285.15410,-466.13585 277.76944,-475.22715 276.48711,-482.56571 259.57225,-499.12001 251.20297,-510.51262 244.70370,-524.05035 244.11689,-539.20066 249.42284,-553.16520 258.15816,-570.05823 268.58438,-583.54953 270.09869,-592.54618 282.78204,-615.37854 284.47168,-629.59530 284.96198,-637.88962 282.25201,-651.48490 276.93751,-655.03891 267.10911,-653.92094 262.71551,-645.12913 254.76726,-641.34382 242.17876,-624.67637 231.27034,-609.80217 227.38748,-601.97154 229.35565,-587.57532 222.68704,-576.76018 206.24813,-561.08763 198.77287,-558.73365 181.46027,-570.27737 178.07864,-569.57740 168.24098,-560.72156 156.36473,-556.63991 136.07148,-561.04454 119.76970,-559.94703 106.00176,-562.31591 98.67169,-566.04165 102.28976,-571.42519 102.50214,-579.95926 106.66263,-583.87204 103.31790,-586.85035 96.29549,-584.14631 89.58643,-588.51031 76.15140,-588.50139 61.95566,-577.93944 46.00959,-581.06741 32.53856,-576.50610 21.14557,-578.16008 5.70878,-583.19717 -11.15463,-598.78798 -29.77644,-607.66471 -40.20500,-617.54266 -44.76732,-626.95177 -45.32959,-641.55886 -44.63227,-651.76611 -41.15936,-659.07635 -48.67599,-659.52596 -62.16852,-654.42947 -76.84259,-647.26878 -81.73108,-637.07107 -85.19053,-622.06885 -95.63946,-609.46499 -101.38105,-596.75041 -109.77076,-581.78510 -122.13658,-572.53975 -137.12710,-571.80669 -150.09471,-587.40888 -164.80525,-579.71288 -173.65931,-572.44840 -177.00887,-560.47978 -181.85385,-548.93148 -191.52311,-538.56755 -199.90001,-530.90914 -205.49392,-522.73912 -236.23416,-518.62437 -237.49388,-527.18084 -251.61355,-525.10453 -286.96021,-519.50479 -324.44033,-497.50516 -348.66630,-482.08394 -346.18403,-478.43312 -368.61661,-475.77535 -388.58498,-472.72576 -388.94815,-461.63875 -397.09621,-447.23632 -404.38087,-442.80518 -404.73125,-436.52630 -413.90512,-433.04573 -418.44985,-425.98844 -433.41374,-419.75426 -436.74637,-415.31754 -435.64091,-403.73590 -445.68567,-379.01037 -450.73013,-347.23022 -448.76089,-342.78048 -453.70528,-334.05765 -460.56779,-313.58380 -457.52074,-296.69764 -462.14842,-283.21733 -453.48107,-267.83002 -448.47228,-250.60229 -448.20558,-233.81433 -436.39146,-216.88429 -428.78704,-199.30942 -421.21705,-181.67896 -415.06785,-153.91114 -413.80535,-135.27125 -414.68207,-124.61068 -411.75235,-121.20574 -394.39138,-134.33848 -392.98388,-155.71511 -387.94501,-151.40257 -385.08761,-134.09053 -384.56963,-116.00253 -346.34141,-127.14572"
        class="ne_110m_admin_0_countries"
        fill-rule="evenodd"
      />
    </g>
    <g class="name continent installations">
      <circle
        cx="271.14129"
        cy="-380.29835"
        class="janeway_installations"
        r="1"
      />
      <circle
        cx="-282.07568"
        cy="-501.48958"
        class="janeway_installations"
        r="1"
      />
      <circle
        cx="1.72033"
        cy="-206.34011"
        class="janeway_installations"
        r="1"
      />
      <circle
        cx="330.8713"
        cy="-310.93552"
        class="janeway_installations"
        r="1"
      />
      <circle
        cx="54.4014"
        cy="-327.57759"
        class="janeway_installations"
        r="1"
      />
      <circle
        cx="21.52558"
        cy="-320.61712"
        class="janeway_installations"
        r="1"
      />
      <circle
        cx="269.24944"
        cy="-425.44225"
        class="janeway_installations"
        r="1"
      />
      <circle
        cx="174.58121"
        cy="-305.13061"
        class="janeway_installations"
        r="1"
      />
      <circle
        cx="192.24617"
        cy="-351.70434"
        class="janeway_installations"
        r="1"
      />
      <circle
        cx="322.39935"
        cy="-320.67306"
        class="janeway_installations"
        r="1"
      />
      <circle
        cx="356.93706"
        cy="-271.33099"
        class="janeway_installations"
        r="1"
      />
      <circle
        cx="345.55971"
        cy="-271.74442"
        class="janeway_installations"
        r="1"
      />
      <circle
        cx="324.8974"
        cy="-231.42097"
        class="janeway_installations"
        r="1"
      />
      <circle
        cx="78.53781"
        cy="-389.91379"
        class="janeway_installations"
        r="1"
      />
      <circle
        cx="138.21795"
        cy="-469.87142"
        class="janeway_installations"
        r="1"
      />
      <circle
        cx="187.45207"
        cy="-436.39153"
        class="janeway_installations"
        r="1"
      />
      <circle
        cx="-444.81371"
        cy="-343.5187"
        class="janeway_installations"
        r="1"
      />
      <circle
        cx="238.36925"
        cy="-334.85629"
        class="janeway_installations"
        r="1"
      />
    </g>
  </g>
</svg>
