<svg xmlns="http://www.w3.org/2000/svg" xmlns:xlink="http://www.w3.org/1999/xlink" version="1.1" x="0px" y="0px" viewBox="0 0 100 100" style="enable-background:new 0 0 100 100;" xml:space="preserve">
  <!-- Created by IconMark from the Noun Project. CC BY 3.0 -->
  <path
    stroke="currentColor"
    fill="currentColor"
    d="M83,5H17C10.4,5,5,10.4,5,17v66c0,6.6,5.4,12,12,12h66c6.6,0,12-5.4,12-12V17C95,10.4,89.6,5,83,5z M89,83c0,3.3-2.7,6-6,6  H17c-3.3,0-6-2.7-6-6V17c0-3.3,2.7-6,6-6h66c3.3,0,6,2.7,6,6V83z M63.9,38.4H36.1c-3.5,0-5.3,4.1-3,6.7L47,60.3  c0.8,0.9,1.9,1.3,3,1.3s2.2-0.4,3-1.3l13.9-15.3C69.2,42.5,67.3,38.4,63.9,38.4z M50,57.6L36.1,42.4h27.7L50,57.6z"/>
</svg>
