<svg
  xmlns="http://www.w3.org/2000/svg"
  xmlns:xlink="http://www.w3.org/1999/xlink"
  version="1.1"
  x="0px"
  y="0px"
  viewBox="0 0 100 100"
  style="enable-background:new 0 0 100 100;"
  xml:space="preserve"
>
  <!-- Created by IconMark from the Noun Project. CC BY 3.0 -->
  <path
    stroke="currentColor"
    fill="currentColor"
    d="M83,11c3.3,0,6,2.7,6,6v66c0,3.3-2.7,6-6,6H17c-3.3,0-6-2.7-6-6V17c0-3.3,2.7-6,6-6H83 M83,5H17C10.4,5,5,10.4,5,17v66  c0,6.6,5.4,12,12,12h66c6.6,0,12-5.4,12-12V17C95,10.4,89.6,5,83,5L83,5z M57.7,36.1L57.7,36.1L57.7,36.1 M57.6,36.1l0,27.7L42.4,50  L57.6,36.1 M57.6,32.1c-0.9,0-1.9,0.3-2.7,1L39.7,47c-1.7,1.6-1.7,4.3,0,5.9l15.3,13.9c0.8,0.7,1.7,1,2.7,1c2.1,0,4-1.6,4-4V36.1  C61.6,33.7,59.7,32.1,57.6,32.1L57.6,32.1z"
  />
</svg>
