<svg
  xmlns="http://www.w3.org/2000/svg"
  xmlns:xlink="http://www.w3.org/1999/xlink"
  version="1.1"
  x="0px"
  y="0px"
  viewBox="0 0 100 100"
  style="enable-background:new 0 0 100 100;"
  xml:space="preserve"
>
  <!-- Created by IconMark from the Noun Project. CC BY 3.0 -->
  <path
    stroke="currentColor"
    fill="currentColor"
    d="M83,5H17C10.4,5,5,10.4,5,17v66c0,6.6,5.4,12,12,12h66c6.6,0,12-5.4,12-12V17C95,10.4,89.6,5,83,5z M89,83c0,3.3-2.7,6-6,6  H17c-3.3,0-6-2.7-6-6V17c0-3.3,2.7-6,6-6h66c3.3,0,6,2.7,6,6V83z M53,39.7c-0.8-0.9-1.9-1.3-3-1.3s-2.2,0.4-3,1.3L33.2,54.9  c-2.3,2.6-0.5,6.7,3,6.7h27.7c3.5,0,5.3-4.1,3-6.7L53,39.7z M36.1,57.6L50,42.4c0,0,0,0,0,0l13.9,15.3L36.1,57.6z"
  />
</svg>
