<svg xmlns="http://www.w3.org/2000/svg" xmlns:xlink="http://www.w3.org/1999/xlink" version="1.1" x="0px" y="0px" viewBox="0 0 100 100" style="enable-background:new 0 0 100 100;" xml:space="preserve">
  <!-- Created by IconMark from the Noun Project. CC BY 3.0 -->
  <path
    stroke="currentColor"
    fill="currentColor"
    d="M83,5H17C10.4,5,5,10.4,5,17v66c0,6.6,5.4,12,12,12h66c6.6,0,12-5.4,12-12V17C95,10.4,89.6,5,83,5z M89,83c0,3.3-2.7,6-6,6  H17c-3.3,0-6-2.7-6-6V17c0-3.3,2.7-6,6-6h66c3.3,0,6,2.7,6,6V83z M45.1,33.2c-0.8-0.7-1.7-1-2.7-1c-2.1,0-4,1.6-4,4v27.7  c0,2.4,2,4,4,4c0.9,0,1.9-0.3,2.7-1L60.3,53c1.7-1.6,1.7-4.3,0-5.9L45.1,33.2z M42.4,63.9l0-27.7L57.6,50L42.4,63.9z"/>
</svg>
