<svg
  class="planetary-belt"
  viewBox="0 0 841.89 492.22008"
  version="1.1"
  width="841.89001"
  height="492.22006"
  xmlns="http://www.w3.org/2000/svg"
>
  <path
    class="fill-alpha-yellow"
    d="m 872.4999,116.1901 -6.57,-9.11 -4.93,-7.33 -20.55,9.86 -11.51,9.04 h -23.01 l -2.47,-5.75 c -2.47,-5.75 0,0 -8.22,-4.11 -8.22,-4.11 0,0 -12.33,4.11 -12.33,4.11 0,0 -13.15,-1.64 -13.15,-1.64 -7.4,-4.18 -7.4,-4.18 l -11.51,-8.97 -21.37,-4.93 -12.33,4.11 -11.51,9.79 c 0,0 -7.4,-2.4 -34.52,-8.97 -27.12,-6.57 -47.42,-10.68 -47.42,-10.68 l -18.33,-2.47 -16.44,6.57 -18.08,2.47 -13.97,-7.4 -7.4,-6.57 -8.22,-4.11 -14.79,-0.82 -19.15,4.11 -17.84,2.47 -15.62,2.47 -4.93,-4.93 -4.11,-6.57 -18.9,-1.64 -12.33,9.04 -13.15,15.62 -11.09,-3.29 -19.31,2.47 -8.22,-3.29 -8.22,-7.4 -9.86,-4.93 -13.15,-2.47 -21.37,-9.57 -15.62,4.63 -5.75,11.51 -6.57,8.22 c 0,0 -10.68,-2.47 -15.62,-6.57 -4.94,-4.1 0,-16.44 -12.33,-17.37 -12.33,-0.93 -12.33,0 -12.33,0 l -19.72,6.69 c 0,0 -22.19,-4.93 -29.59,-6.57 -7.4,-1.64 -39.45,15.62 -39.45,15.62 l -15.62,23.78 -7.4,10.74 -11.51,0.82 c 0,0 -3.29,-8.22 -9.04,-10.68 -5.75,-2.47 -17.26,0.82 -24.66,3.29 -7.4,2.47 -21.09,17.26 -21.09,17.26 l -1.76,15.62 c 0,0 -27.28,0 -33.03,2.47 -5.75,2.47 -16.44,-7.71 -16.44,-7.71 l -4.93,-5.19 -12.33,-5.19 c 0,0 -10.68,3.29 -18.08,8.19 -7.4,4.9 -21.37,0 -21.37,0 v 78.88 h 888.5 l 8.96,-92.73"
  />
  <circle class="fill-alpha-blue" cx="231.8501" cy="140.53004" r="140.53" />
  <path
    class="fill-alpha-red"
    d="m 860.9899,154.3701 -20.55,-0.82 c -20.55,-0.82 -12.33,-0.82 -12.33,-0.82 l -13.97,2.47 -14.79,1.64 -29.59,-6.57 -15.62,-4.93 -17.26,-0.82 c 0,0 17.26,0.82 -9.04,1.64 -26.3,0.82 -11.51,0.82 -11.51,0.82 l -18.08,3.29 -18.9,-1.64 -16.19,-5.75 h -11.75 l -9.86,5.75 c -9.86,5.75 -17.83,4.93 -17.83,4.93 l -24.9,3.29 -18.08,-4.93 -23.01,-7.4 h -15.62 l -12.33,5.75 -18.9,-0.82 -18.08,-2.47 c 0,0 -19.72,0 -25.48,1.64 -5.75,1.64 -33.7,33.7 -33.7,33.7 l -13.15,12.33 -7.4,0.82 -14.79,-4.11 -8.22,-1.64 -13.15,10.68 -15.62,5.75 -13.15,-9.86 v -17.26 c 0,-6.57 -3.29,-9.46 -3.29,-9.46 l -9.86,-6.97 -4.11,-11.51 -10.68,-1.64 -5.75,39.45 -9.86,4.93 -7.4,12.33 h -18.08 c 0,0 -4.11,-29.59 -4.11,-36.16 0,-6.57 -4.93,0 -4.93,0 l -5.75,8.22 -9.04,-8.22 -8.22,-12.33 -13.15,1.64 -16.44,-5.36 -38.63,-5.33 -17.26,5.33 -9.86,-14.37 c 0,0 -3.29,-5.75 -13.15,-6.57 -9.86,-0.82 -23.83,17.26 -23.83,17.26 h -23.01 l -22.19,10.68 -15.62,9.04 -25.48,4.93 h -50.13 v 132.86 h 882.66 v -153.41 z"
  />
  <path
    class="fill-alpha-yellow"
    d="m 841.918,263.9601 -33.7568,-4.93 -40.3379,-4.11 -12.1104,-4.93 -19.1722,-10.68 -21.4061,3.29 -19.7532,3.38 -22.2274,4.02 -18.1105,-4.02 c 0,0 -16.4677,-0.09 -25.5229,-12.42 -9.0552,-12.33 -9.8766,-4.11 -9.8766,-4.11 l -15.6464,1.64 -12.3507,8.22 -21.406,6.67 h -52.6887 l -9.2956,-9.95 -26.9253,-2.47 -13.9936,5.75 h -5.7597 l -18.9318,6.67 -13.9936,-3.38 -12.3508,3.38 -11.5294,-6.67 -8.2338,-10.68 v -9.86 l -9.8766,-4.11 -14.815,4.11 -9.8766,10.68 -10.698,16.53 -17.2891,6.48 -18.9318,-3.29 -14.815,-7.4 -23.8701,-7.4 -20.5847,29.59 -10.698,-5.75 h -18.9318 l -14.8149,-1.64 -6.5811,-22.19 h -46.929 l -18.9318,4.11 -22.2274,14.17 -13.9936,11.31 -12.3508,-4.11 h -32.104 l -16.4677,-3.93 c 0,0 -13.9935,-5.94 -22.2274,-1.83 -8.2338,4.11 -50.1143,0 -50.1143,0 v 243.02 H 842.938 v -233.15"
  />
  <circle class="fill-alpha-blue" cx="650.31006" cy="249.91017" r="52.150002" />
</svg>
