<svg xmlns="http://www.w3.org/2000/svg" viewBox="0 0 1031.09 780">
  <path class="fill-alpha-red" d="M483.87,0s0,154.66,0,359.2c0,227.53-164.45,420.8-164.45,420.8H0s472.05-128.25,472.05-503.26c0-133.36,0-276.74,0-276.74h11.82Z"/>
  <path class="fill-alpha-yellow" d="M509.21,0v780h-83.92s71.33-203.82,71.33-420.8c0-204.4,0-359.2,0-359.2h12.59Z"/>
  <path class="fill-alpha-yellow" d="M521.88,0v780h83.92s-71.33-203.82-71.33-420.8V0h-12.59Z"/>
  <path class="fill-alpha-red" d="M547.22,0v359.2c0,227.53,164.45,420.8,164.45,420.8h319.42s-472.05-128.25-472.05-503.26V0h-11.82Z"/>
</svg>
