<?xml version="1.0" encoding="UTF-8"?><svg id="Icons" xmlns="http://www.w3.org/2000/svg" viewBox="0 0 130 130"><defs><style>.cls-1{fill:#36565f;}.cls-1,.cls-2{stroke-width:0px;}.cls-2{fill:#c08031;}</style></defs><circle class="cls-2" cx="72.66" cy="65" r="43"/><path class="cls-1" d="m72.66,93.54c-3.68,0-7.27-.69-10.66-2.06l2.65-6.57c2.55,1.03,5.24,1.55,8.01,1.55,11.83,0,21.46-9.63,21.46-21.46s-9.63-21.46-21.46-21.46c-2.77,0-5.46.52-8.01,1.55l-2.65-6.57c3.39-1.37,6.98-2.06,10.66-2.06,15.74,0,28.54,12.8,28.54,28.54s-12.8,28.54-28.54,28.54Z"/><rect class="cls-1" x="14.75" y="61.46" width="55.99" height="7.09"/><polygon class="cls-1" points="58.21 83.91 52.99 79.13 65.93 65 52.99 50.87 58.21 46.09 75.55 65 58.21 83.91"/></svg>