<?xml version="1.0" encoding="UTF-8"?><svg id="Icons" xmlns="http://www.w3.org/2000/svg" viewBox="0 0 130 130"><defs><style>.cls-1{fill:#36565f;}.cls-1,.cls-2{stroke-width:0px;}.cls-2{fill:#c08031;}</style></defs><circle class="cls-2" cx="53.02" cy="54.59" r="43"/><path class="cls-1" d="m74.25,108.98c-9.19,0-17.83-3.58-24.33-10.08-13.42-13.42-13.42-35.24,0-48.66,13.42-13.41,35.24-13.41,48.66,0,13.42,13.42,13.42,35.24,0,48.66-6.5,6.5-15.14,10.08-24.33,10.08Zm0-61.71c-7,0-13.99,2.66-19.32,7.99-10.65,10.65-10.65,27.98,0,38.63,5.16,5.16,12.02,8,19.32,8s14.16-2.84,19.32-8c10.65-10.65,10.65-27.98,0-38.63-5.33-5.33-12.32-7.99-19.32-7.99Z"/><path class="cls-1" d="m84.43,64.39c-2.71-2.71-6.33-4.21-10.18-4.21s-7.47,1.5-10.18,4.21l-5.01-5.01c4.05-4.05,9.45-6.29,15.19-6.29s11.14,2.23,15.19,6.29l-5.01,5.01Z"/><polygon class="cls-1" points="111.39 124.34 88.71 101.66 93.72 96.65 111.39 114.32 114 111.72 96.33 94.05 101.34 89.03 124.02 111.72 111.39 124.34"/></svg>