<?xml version="1.0" encoding="UTF-8" standalone="no"?>
<svg
   viewBox="42 23 173 53"
   version="1.1"
   id="svg3"
   sodipodi:docname="birkbeck-logo-black-on-white-updated.svg"
   inkscape:version="1.3.2 (091e20e, 2023-11-25)"
   xmlns:inkscape="http://www.inkscape.org/namespaces/inkscape"
   xmlns:sodipodi="http://sodipodi.sourceforge.net/DTD/sodipodi-0.dtd"
   xmlns="http://www.w3.org/2000/svg"
   xmlns:svg="http://www.w3.org/2000/svg"
   xmlns:rdf="http://www.w3.org/1999/02/22-rdf-syntax-ns#"
   xmlns:cc="http://creativecommons.org/ns#"
   xmlns:dc="http://purl.org/dc/elements/1.1/">
  <defs
     id="defs3" />
  <sodipodi:namedview
     id="namedview3"
     pagecolor="#ffffff"
     bordercolor="#000000"
     borderopacity="0.25"
     inkscape:showpageshadow="2"
     inkscape:pageopacity="0.0"
     inkscape:pagecheckerboard="0"
     inkscape:deskcolor="#d1d1d1"
     inkscape:zoom="3.3427464"
     inkscape:cx="90.045718"
     inkscape:cy="67.758655"
     inkscape:window-width="1352"
     inkscape:window-height="844"
     inkscape:window-x="1366"
     inkscape:window-y="150"
     inkscape:window-maximized="0"
     inkscape:current-layer="svg3" />
  <title
     id="title1">birkbeck-logo icon</title>
  <path
     id="path1"
     d="M 149.41992 30.689453 L 144.45703 31.060547 L 144.45703 31.693359 C 146.6539 31.730668 146.8058 31.879599 146.84375 34.113281 L 146.84375 53.882812 C 148.66172 54.217787 149.64681 54.292969 150.7832 54.292969 C 153.09345 54.292969 154.79753 53.95781 156.3125 53.175781 C 158.69866 51.947337 160.13672 49.639089 160.13672 47.107422 C 160.13672 43.496221 157.41038 40.666016 153.92578 40.666016 C 152.25931 40.666016 150.55599 41.373154 149.41992 42.564453 L 149.41992 30.689453 z M 133.58789 30.763672 L 128.58789 31.173828 L 128.58789 31.84375 C 130.70885 31.84375 130.97461 32.067004 130.97461 33.742188 L 130.97461 50.978516 C 130.97461 53.137903 130.6719 53.472456 128.74023 53.509766 L 128.74023 54.142578 L 135.82227 54.142578 L 135.82227 53.509766 C 133.85264 53.472459 133.58789 53.175051 133.58789 50.978516 L 133.58789 47.552734 L 140.55664 54.142578 L 144.94922 54.142578 L 144.94922 53.509766 C 143.62354 53.435149 142.94202 53.064543 141.6543 51.835938 L 136.04883 46.324219 L 138.92773 43.792969 C 140.78382 42.154935 141.76892 41.671875 143.24609 41.671875 L 143.85156 41.671875 L 143.85156 41.039062 L 136.58008 41.039062 L 136.58008 41.671875 C 137.75426 41.671875 138.20898 41.968528 138.20898 42.675781 C 138.20898 43.08521 137.82848 43.681933 137.22266 44.203125 L 133.58789 47.367188 L 133.58789 30.763672 z M 195.36328 30.763672 L 190.36328 31.173828 L 190.36328 31.84375 C 192.48424 31.84375 192.75 32.067003 192.75 33.742188 L 192.75 50.978516 C 192.75 53.137903 192.44729 53.472456 190.51562 53.509766 L 190.51562 54.142578 L 197.59766 54.142578 L 197.59766 53.509766 C 195.62803 53.472459 195.36328 53.175051 195.36328 50.978516 L 195.36328 47.552734 L 202.33203 54.142578 L 206.72656 54.142578 L 206.72656 53.509766 C 205.40056 53.435149 204.71741 53.064543 203.42969 51.835938 L 197.82422 46.324219 L 200.70312 43.792969 C 202.55888 42.154935 203.5448 41.671875 205.02148 41.671875 L 205.62695 41.671875 L 205.62695 41.039062 L 198.35547 41.039062 L 198.35547 41.671875 C 199.52949 41.671875 199.98438 41.968529 199.98438 42.675781 C 199.98438 43.08521 199.6042 43.681933 198.99805 44.203125 L 195.36328 47.367188 L 195.36328 30.763672 z M 88.132812 30.818359 L 88.132812 31.460938 L 88.435547 31.460938 C 90.104294 31.460938 90.595703 33.470719 90.595703 35.890625 L 90.595703 49.181641 C 90.595703 51.601706 89.988472 53.509766 88.435547 53.509766 L 88.132812 53.509766 L 88.132812 54.142578 L 97.564453 54.142578 C 99.230919 54.142578 100.40081 53.981838 101.42773 53.660156 C 103.92434 52.878287 105.10156 50.112314 105.10156 47.990234 C 105.10156 45.123753 102.82792 42.703507 99.457031 41.996094 L 99.457031 41.921875 C 100.86204 41.489229 101.35138 41.217453 102.13672 40.585938 C 103.63442 39.38167 103.97461 37.764475 103.97461 36.3125 C 103.97461 34.60001 103.04544 32.655359 101.10938 31.722656 C 99.860746 31.121084 98.131993 30.818359 95.859375 30.818359 L 88.132812 30.818359 z M 93.472656 31.730469 L 95.101562 31.730469 C 96.540947 31.730469 97.103792 31.781147 97.921875 32.011719 C 100.03599 32.607368 100.82227 34.088896 100.82227 36.173828 C 100.82227 38.854249 98.890421 41.585938 95.708984 41.585938 L 93.472656 41.585938 L 93.472656 31.730469 z M 110.22852 32.521484 C 109.05254 32.697137 108.16797 33.722057 108.16797 34.929688 C 108.16797 36.257568 109.23713 37.365234 110.58789 37.365234 C 111.43155 37.365234 112.18809 36.932684 112.63672 36.285156 L 112.26953 36.328125 C 110.9098 36.328125 109.80664 35.245052 109.80664 33.908203 C 109.80664 33.395016 109.96867 32.918999 110.24609 32.527344 L 110.22852 32.521484 z M 121.63477 40.628906 L 116.33203 41.039062 L 116.33203 41.671875 L 116.86133 41.671875 C 118.60354 41.671875 118.98242 42.042931 118.98242 43.867188 L 118.98242 50.978516 C 118.98242 53.063446 118.64261 53.509766 117.08984 53.509766 L 116.74805 53.509766 L 116.74805 54.142578 L 123.86914 54.142578 L 123.86914 53.509766 L 123.49023 53.509766 C 121.97527 53.509766 121.63477 53.063448 121.63477 50.978516 L 121.63477 44.388672 C 122.8469 43.234683 123.60342 42.826172 124.47461 42.826172 C 125.23209 42.826172 125.91514 43.085519 127.31641 43.830078 L 127.61914 43.980469 L 128.64062 41.447266 C 127.99684 41.000529 126.97555 40.666016 126.25586 40.666016 C 125.27113 40.666016 124.21038 41.299597 121.63477 43.458984 L 121.63477 40.628906 z M 112.22266 40.666016 L 107.14648 41.150391 L 107.14648 41.783203 L 107.9043 41.783203 C 109.15439 41.783203 109.68555 42.304836 109.68555 43.458984 L 109.68555 51.685547 C 109.68555 53.025597 109.19176 53.509766 107.82812 53.509766 L 107.14648 53.509766 L 107.14648 54.142578 L 114.49414 54.142578 L 114.49414 53.509766 C 112.48672 53.472619 112.22266 53.175051 112.22266 50.978516 L 112.22266 40.666016 z M 169.00195 40.666016 C 165.21436 40.666016 162.22266 43.756789 162.22266 47.703125 C 162.22266 51.64946 165.25291 54.478516 169.45703 54.478516 C 171.8054 54.478516 173.35749 53.732972 174.98633 51.722656 L 174.98633 50.755859 C 173.20616 52.803323 171.80488 53.697266 170.25195 53.697266 C 168.81273 53.697266 167.26028 52.766427 166.27539 51.314453 C 165.29066 49.936935 164.98659 48.744835 164.87305 46.101562 L 174.75977 46.101562 L 174.75977 45.654297 C 174.79772 43.048172 172.03206 40.666016 169.00195 40.666016 z M 184.11328 40.666016 C 180.24994 40.666016 177.2207 43.867721 177.2207 47.888672 C 177.2207 51.760391 179.98601 54.478516 183.96289 54.478516 C 186.38701 54.478516 188.54626 53.435384 189.83398 51.648438 L 189.83398 50.71875 C 188.20547 52.617461 186.72701 53.435547 184.87109 53.435547 C 182.10603 53.435547 179.83398 50.419795 179.83398 46.808594 C 179.83398 43.532364 181.65248 41.335938 184.3418 41.335938 C 186.57646 41.335938 188.35648 42.863496 188.88672 45.246094 L 189.45508 45.246094 L 189.45508 40.703125 L 188.77344 40.703125 C 188.54619 41.112554 188.20423 41.335938 187.86328 41.335938 C 187.67383 41.335938 187.37203 41.261835 187.03125 41.150391 C 186.04652 40.852246 184.98447 40.666016 184.11328 40.666016 z M 168.62305 41.373047 C 170.8955 41.373047 172.2207 42.862787 172.2207 45.46875 L 164.94922 45.46875 C 165.29001 42.676566 166.50209 41.373047 168.62305 41.373047 z M 152.86523 41.671875 C 155.40289 41.671875 157.29688 44.090996 157.29688 47.330078 C 157.29688 51.27641 155.21379 53.623047 151.69141 53.623047 C 149.75974 53.623047 149.41992 53.138363 149.41992 50.197266 L 149.41992 43.533203 C 150.44245 42.267449 151.50192 41.671875 152.86523 41.671875 z M 93.472656 42.666016 L 95.519531 42.666016 C 99.345075 42.666016 101.76758 45.503741 101.76758 48.59375 C 101.76758 49.822354 101.39004 50.975906 100.74609 51.794922 C 99.875068 52.874615 98.851167 53.285156 97.033203 53.285156 L 95.935547 53.285156 C 93.966087 53.285156 93.472656 52.577575 93.472656 49.710938 L 93.472656 42.666016 z M 126.85352 61.587891 C 125.89974 61.587891 125.15755 62.214997 125.1582 63.162109 C 125.15853 63.569779 125.25255 63.943846 125.51172 64.259766 C 125.64644 64.412519 125.83337 64.601288 125.97852 64.703125 C 126.11324 64.794874 126.37809 64.952601 126.76172 65.197266 C 127.01047 65.35002 127.24933 65.517834 127.4668 65.701172 C 127.82974 65.986507 127.93164 66.257289 127.93164 66.501953 C 127.93164 67.087835 127.52389 67.503906 126.80859 67.503906 C 126.48719 67.503906 126.21359 67.403053 125.96484 67.199219 C 125.62275 66.944627 125.54221 66.714236 125.48242 66.173828 L 125.47266 66.0625 L 125.12695 66.0625 L 125.12305 67.808594 L 125.44336 67.808594 C 125.49532 67.655839 125.53705 67.582031 125.60742 67.582031 C 125.64896 67.582031 125.73303 67.619446 125.97266 67.697266 C 126.47032 67.858827 126.63368 67.890625 126.95508 67.890625 C 127.96457 67.890625 128.74789 67.092731 128.74609 66.162109 C 128.74528 65.795274 128.61221 65.4162 128.34961 65.101562 C 128.12432 64.831598 127.88306 64.649099 127.40625 64.353516 C 127.08501 64.15993 126.89253 64.034625 126.75781 63.953125 C 126.57129 63.830953 126.36764 63.683201 126.22266 63.550781 C 125.98417 63.326611 125.87061 63.059855 125.86133 62.810547 C 125.84536 62.38863 126.22182 61.946337 126.82031 61.939453 C 127.12102 61.93609 127.38132 62.027922 127.60938 62.201172 C 127.86839 62.394919 127.9737 62.641183 128.08789 63.099609 L 128.09766 63.181641 L 128.42578 63.181641 L 128.42578 61.660156 L 128.10547 61.660156 C 128.10547 61.68049 128.10514 61.690762 128.10547 61.701172 C 128.10612 61.779312 128.08047 61.828478 128.00195 61.820312 C 127.93679 61.813268 127.88918 61.801725 127.68164 61.730469 C 127.32929 61.618384 127.15407 61.587891 126.85352 61.587891 z M 152.65625 61.589844 C 150.78306 61.589844 149.36719 62.939649 149.36719 64.71875 C 149.36719 66.487442 150.79336 67.888672 152.61328 67.888672 C 154.42261 67.888672 155.84766 66.486131 155.84766 64.707031 C 155.84766 62.969722 154.4444 61.589844 152.65625 61.589844 z M 174.75586 61.589844 C 172.88251 61.589844 171.4668 62.939649 171.4668 64.71875 C 171.4668 66.487442 172.89297 67.888672 174.71289 67.888672 C 176.52222 67.888672 177.94922 66.486131 177.94922 64.707031 C 177.94922 62.969722 176.54401 61.589844 174.75586 61.589844 z M 196.83398 61.589844 C 194.96064 61.589844 193.54492 62.939649 193.54492 64.71875 C 193.54492 66.487443 194.9711 67.888672 196.79102 67.888672 C 198.60051 67.888672 200.02734 66.486131 200.02734 64.707031 C 200.02734 62.969722 198.62214 61.589844 196.83398 61.589844 z M 133.1543 61.712891 L 133.13477 63.007812 L 133.45898 63.007812 C 133.58328 62.386385 133.78396 62.203125 134.61328 62.203125 L 135.40625 62.203125 L 135.40625 66.535156 C 135.40625 67.197416 135.24012 67.408203 134.80469 67.408203 L 134.73242 67.408203 L 134.73242 67.746094 L 137.00586 67.746094 L 137.00586 67.408203 L 136.91211 67.408203 C 136.49753 67.408203 136.32031 67.20833 136.32031 66.566406 L 136.32031 62.203125 L 137.18555 62.203125 C 137.95264 62.203125 138.1753 62.386522 138.35156 62.957031 L 138.37109 63.039062 L 138.66406 63.039062 L 138.61914 61.712891 L 133.1543 61.712891 z M 87.814453 61.738281 L 87.814453 62.070312 L 87.896484 62.070312 C 88.32149 62.070312 88.488281 62.23618 88.488281 62.898438 L 88.488281 65.699219 C 88.464986 66.93551 89.177665 67.847656 90.587891 67.847656 C 91.375839 67.847656 91.909664 67.609859 92.482422 67.046875 L 92.482422 67.740234 L 94.119141 67.746094 L 94.119141 67.417969 L 93.957031 67.417969 C 93.532026 67.417969 93.441573 67.093016 93.435547 66.535156 L 93.435547 62.898438 C 93.435547 62.236179 93.665929 62.072394 93.957031 62.070312 L 94.119141 62.070312 L 94.119141 61.742188 L 91.845703 61.742188 L 91.845703 62.070312 L 91.966797 62.070312 C 92.391803 62.070312 92.482251 62.387015 92.488281 62.898438 L 92.488281 63.082031 L 92.482422 66.4375 C 92.03184 67.037312 91.552028 67.326172 90.857422 67.326172 C 90.318386 67.326172 89.927294 67.148725 89.681641 66.791016 C 89.47769 66.494152 89.477894 66.252871 89.443359 65.597656 L 89.443359 62.898438 C 89.443359 62.236179 89.60949 62.070312 90.044922 62.070312 L 90.117188 62.070312 L 90.117188 61.738281 L 87.814453 61.738281 z M 95.1875 61.742188 L 95.1875 62.058594 C 95.906378 62.117999 96.068359 62.373268 96.068359 63.117188 L 96.068359 66.443359 C 96.068359 67.156697 95.881739 67.417969 95.425781 67.417969 L 95.332031 67.417969 L 95.332031 67.746094 L 97.304688 67.746094 L 97.304688 67.408203 L 97.222656 67.408203 C 96.693883 67.408203 96.515625 67.228619 96.515625 66.474609 L 96.515625 62.828125 L 96.537109 62.828125 L 100.61133 67.777344 L 100.91211 67.777344 L 100.91211 62.876953 C 100.91211 62.224941 101.0987 62.070312 101.58594 62.070312 L 101.67969 62.070312 L 101.67969 61.742188 L 99.716797 61.742188 L 99.716797 62.070312 L 99.810547 62.070312 C 100.29778 62.070313 100.45508 62.235655 100.45508 63.142578 L 100.45508 66.154297 L 100.43359 66.154297 L 96.845703 61.742188 L 95.1875 61.742188 z M 102.76562 61.742188 L 102.76562 62.070312 L 102.84961 62.070312 C 103.27461 62.070312 103.40571 62.183818 103.46094 62.898438 L 103.46094 66.535156 C 103.46094 67.197416 103.27461 67.417969 102.84961 67.417969 L 102.76562 67.417969 L 102.76562 67.746094 L 105.06055 67.746094 L 105.06055 67.417969 L 104.98633 67.417969 C 104.55106 67.417969 104.38477 67.209134 104.38477 66.546875 L 104.38477 62.908203 C 104.39144 62.284053 104.55106 62.070312 104.98633 62.070312 L 105.06055 62.070312 L 105.06055 61.742188 L 102.76562 61.742188 z M 105.88477 61.742188 L 105.88477 62.070312 C 106.39269 62.100896 106.62427 62.283581 106.9043 63.027344 L 108.73828 67.787109 L 109.03906 67.787109 L 110.80469 63.152344 C 111.13652 62.306747 111.34037 62.150182 111.86914 62.058594 L 111.86914 61.742188 L 109.98047 61.742188 L 109.98047 62.070312 C 110.36312 62.081361 110.51953 62.166483 110.51953 62.421875 C 110.51953 62.554455 110.45858 62.745246 110.36523 63 L 109.13672 66.212891 L 107.87891 62.947266 L 107.81641 62.753906 C 107.70238 62.468572 107.69336 62.474722 107.69336 62.382812 C 107.69336 62.16889 107.90125 62.068841 108.22266 62.058594 L 108.22266 61.742188 L 105.88477 61.742188 z M 112.55078 61.742188 L 112.55078 62.070312 L 112.63477 62.070312 C 113.05977 62.070312 113.21484 62.236178 113.21484 62.898438 L 113.22461 63.082031 L 113.22461 66.535156 C 113.22461 67.197416 113.05977 67.408203 112.63477 67.408203 L 112.55078 67.408203 L 112.55078 67.746094 L 116.97852 67.746094 L 117.29492 66.490234 L 116.9375 66.490234 C 116.64721 67.223747 116.53218 67.367188 115.64062 67.367188 L 114.75977 67.367188 C 114.20004 67.367188 114.16016 67.3914 114.16016 66.994141 L 114.16016 64.964844 L 115.5332 64.964844 C 116.17584 64.964844 116.19146 65.025974 116.32617 65.525391 L 116.64844 65.525391 L 116.64844 63.953125 L 116.33789 63.953125 C 116.32747 63.983708 116.32667 64.003425 116.31641 64.013672 C 116.20238 64.472257 116.1765 64.523438 115.52344 64.523438 L 114.16016 64.523438 L 114.16016 62.111328 L 115.79297 62.111328 C 116.45646 62.111328 116.59704 62.275379 116.74219 62.886719 L 117.05469 62.886719 L 116.99023 61.742188 L 112.55078 61.742188 z M 129.9043 61.742188 L 129.9043 62.070312 L 129.98633 62.070312 C 130.41133 62.070312 130.54439 62.183818 130.59961 62.898438 L 130.59961 66.535156 C 130.59961 67.197416 130.41133 67.417969 129.98633 67.417969 L 129.9043 67.417969 L 129.9043 67.746094 L 132.19727 67.746094 L 132.19727 67.417969 L 132.125 67.417969 C 131.68973 67.417969 131.52344 67.209134 131.52344 66.546875 L 131.52344 62.908203 C 131.52995 62.284052 131.68973 62.070312 132.125 62.070312 L 132.19727 62.070312 L 132.19727 61.742188 L 129.9043 61.742188 z M 139.19727 61.742188 L 139.19727 62.058594 C 139.67407 62.099424 139.84128 62.198242 140.25586 62.830078 L 141.51758 64.757812 L 141.51758 66.535156 C 141.51758 67.197416 141.37425 67.415889 140.91797 67.417969 L 140.80273 67.417969 L 140.80273 67.746094 L 143.10742 67.746094 L 143.10742 67.417969 L 143.03516 67.417969 C 142.61015 67.417969 142.43359 67.197416 142.43359 66.535156 L 142.43359 64.767578 L 143.83594 62.632812 L 143.95898 62.439453 C 144.22744 62.155558 144.35888 62.090296 144.74414 62.058594 L 144.74414 61.742188 L 142.95898 61.742188 L 142.95898 62.070312 C 143.22842 62.070313 143.36328 62.115674 143.36328 62.339844 C 143.36328 62.472104 143.26948 62.664984 143.13477 62.878906 L 142.25977 64.203125 L 141.2832 62.705078 L 141.16797 62.53125 C 141.10574 62.419167 141.06136 62.338349 141.06445 62.277344 C 141.07292 62.118825 141.25218 62.070312 141.55273 62.070312 L 141.67578 62.070312 L 141.67578 61.742188 L 139.19727 61.742188 z M 156.65625 61.742188 L 156.65625 62.070312 L 156.75 62.070312 C 157.17517 62.070312 157.33008 62.236018 157.33008 62.898438 L 157.33008 66.435547 C 157.33008 67.097805 157.16345 67.408203 156.73828 67.408203 L 156.65625 67.408203 L 156.65625 67.746094 L 158.9707 67.746094 L 158.9707 67.408203 L 158.88867 67.408203 C 158.46366 67.408203 158.29688 67.197416 158.29688 66.535156 L 158.29688 64.923828 L 159.52344 64.923828 C 160.19735 64.923828 160.27517 65.005662 160.34766 65.576172 L 160.67188 65.576172 L 160.67188 63.779297 L 160.34766 63.779297 C 160.28543 64.32947 160.19669 64.431641 159.5332 64.431641 L 158.29688 64.431641 L 158.29688 62.111328 L 159.7207 62.111328 C 160.36351 62.111328 160.48231 62.264994 160.61719 62.9375 L 160.94141 62.9375 L 160.88867 61.742188 L 156.65625 61.742188 z M 165.96289 61.742188 L 165.96289 62.070312 L 166.05664 62.070312 C 166.47122 62.070312 166.64648 62.225401 166.64648 62.816406 L 166.63672 63.082031 L 166.63672 66.351562 C 166.63672 67.187073 166.49161 67.408203 166.02539 67.408203 L 165.96289 67.408203 L 165.96289 67.746094 L 170.41211 67.746094 L 170.8418 66.316406 L 170.47461 66.316406 C 170.20485 67.162163 170.0947 67.314453 169.36914 67.314453 L 168.42578 67.314453 L 168.08398 67.304688 C 167.6176 67.284352 167.58219 67.199431 167.58398 66.738281 L 167.58398 66.373047 L 167.58203 63.074219 C 167.58203 62.228462 167.72877 62.070312 168.19531 62.070312 L 168.25781 62.070312 L 168.25781 61.742188 L 165.96289 61.742188 z M 178.76562 61.742188 L 178.76562 62.058594 C 179.4845 62.117999 179.64844 62.373268 179.64844 63.117188 L 179.64844 66.443359 C 179.64844 67.156697 179.46198 67.417969 179.00586 67.417969 L 178.91211 67.417969 L 178.91211 67.746094 L 180.88477 67.746094 L 180.88477 67.408203 L 180.80078 67.408203 C 180.27201 67.408203 180.0957 67.228619 180.0957 66.474609 L 180.0957 62.828125 L 180.11719 62.828125 L 184.19141 67.777344 L 184.49219 67.777344 L 184.49219 62.876953 C 184.49219 62.224941 184.67878 62.070312 185.16602 62.070312 L 185.25977 62.070312 L 185.25977 61.742188 L 183.29688 61.742188 L 183.29688 62.070312 L 183.39062 62.070312 C 183.87786 62.070312 184.0332 62.235655 184.0332 63.142578 L 184.0332 66.154297 L 184.01172 66.154297 L 180.42578 61.742188 L 178.76562 61.742188 z M 186.17578 61.742188 L 186.17578 62.070312 L 186.25 62.070312 C 186.67517 62.070313 186.84961 62.224299 186.84961 62.886719 L 186.84961 66.535156 C 186.84961 67.197416 186.69665 67.40625 186.27148 67.40625 L 186.17578 67.40625 L 186.17578 67.746094 L 188.98242 67.746094 C 189.64575 67.746094 190.18987 67.653559 190.65625 67.480469 C 191.78612 67.072961 192.47461 66.035021 192.47461 64.8125 C 192.47461 63.671159 191.78293 62.60732 190.77734 62.097656 C 190.54928 61.985731 190.31075 61.904917 190.07227 61.84375 C 189.6888 61.752001 189.41894 61.742188 188.66211 61.742188 L 186.17578 61.742188 z M 200.65625 61.742188 L 200.65625 62.058594 C 201.37529 62.117999 201.53711 62.373268 201.53711 63.117188 L 201.53711 66.443359 C 201.53711 67.156697 201.35065 67.417969 200.89453 67.417969 L 200.80273 67.417969 L 200.80273 67.746094 L 202.77539 67.746094 L 202.77539 67.408203 L 202.69141 67.408203 C 202.16263 67.408203 201.98633 67.228619 201.98633 66.474609 L 201.98633 62.828125 L 202.00586 62.828125 L 206.08203 67.777344 L 206.38281 67.777344 L 206.38281 62.876953 C 206.38281 62.224941 206.56762 62.070312 207.05469 62.070312 L 207.14844 62.070312 L 207.14844 61.742188 L 205.1875 61.742188 L 205.1875 62.070312 L 205.2793 62.070312 C 205.76637 62.070312 205.92383 62.235655 205.92383 63.142578 L 205.92383 66.154297 L 205.90234 66.154297 L 202.31641 61.742188 L 200.65625 61.742188 z M 118.43164 61.744141 L 118.43164 62.072266 L 118.50391 62.072266 C 118.92875 62.072266 119.10547 62.247897 119.10547 62.910156 L 119.10547 66.503906 C 119.10547 67.166166 118.92875 67.408203 118.50391 67.408203 L 118.43164 67.408203 L 118.43164 67.748047 L 120.73633 67.748047 L 120.73633 67.419922 L 120.66406 67.419922 C 120.22863 67.419922 120.0625 67.221013 120.0625 66.558594 L 120.0625 65.048828 L 120.36523 65.037109 C 120.67605 65.037109 120.77978 65.051494 120.97656 65.173828 C 121.10086 65.255328 121.24895 65.376676 121.33203 65.478516 C 121.52882 65.692595 121.78368 66.099941 122.17773 66.751953 C 122.62832 67.464649 122.66906 67.496973 122.91016 67.757812 L 124.25195 67.748047 L 124.26172 67.419922 L 124.21094 67.419922 C 123.80287 67.41656 123.52305 67.093667 123.02539 66.298828 L 122.58008 65.585938 C 122.30022 65.137599 122.27085 65.079453 121.87695 64.814453 C 122.68559 64.590284 123.01367 64.0287 123.01367 63.410156 C 123.01367 62.745815 122.66497 62.30243 122.17773 62.027344 C 121.82522 61.813262 121.39171 61.744141 120.69727 61.744141 L 118.43164 61.744141 z M 152.63477 61.939453 C 154.02903 61.939453 154.76172 63.130124 154.76172 64.763672 C 154.76172 66.355754 153.98298 67.517578 152.57812 67.517578 C 151.2052 67.517578 150.39844 66.272024 150.39844 64.666016 C 150.39844 63.074094 151.20858 61.939453 152.63477 61.939453 z M 174.73633 61.939453 C 176.13059 61.939453 176.86328 63.130122 176.86328 64.763672 C 176.86328 66.355753 176.08454 67.517578 174.67969 67.517578 C 173.30677 67.517578 172.5 66.272026 172.5 64.666016 C 172.5 63.074095 173.31014 61.939453 174.73633 61.939453 z M 196.81445 61.939453 C 198.20871 61.939453 198.94141 63.130122 198.94141 64.763672 C 198.94141 66.355753 198.1625 67.517578 196.75781 67.517578 C 195.38473 67.517578 194.57812 66.272026 194.57812 64.666016 C 194.57813 63.074095 195.38842 61.939453 196.81445 61.939453 z M 188.64453 62.103516 C 189.44356 62.103516 189.87807 62.179957 190.28125 62.462891 C 190.96185 62.940691 191.37891 63.751859 191.37891 64.832031 C 191.37891 65.616462 191.21811 66.146721 190.82422 66.615234 C 190.37852 67.145234 189.87073 67.373047 188.96875 67.373047 L 188.52148 67.373047 C 187.92022 67.373047 187.81836 67.148132 187.81836 66.349609 L 187.81836 62.105469 L 188.64453 62.103516 z M 120.58203 62.111328 C 121.47407 62.129742 122.01758 62.626203 122.01758 63.419922 C 122.01758 63.807574 121.87736 64.121084 121.5957 64.367188 C 121.36764 64.566217 121.14242 64.628906 120.75195 64.628906 L 120.05469 64.632812 L 120.06055 62.115234 L 120.58203 62.111328 z " />
  <path
     d="M66.022077 32.121442H51.816364l-.023457 14.717347c.511018 9.027774.948405 14.764103 14.227702 21.54122 13.279297-6.777117 13.71652-12.513446 14.22754-21.54122l-.02346-14.717347H66.022077zm3.740676 33.287043V61.73211h4.697553c-1.222403 1.23213-2.758715 2.45193-4.697553 3.676375zm4.786985-3.76652V56.72001h3.32007c-.704707 1.688153-1.747594 3.315942-3.32007 4.921954zm-12.273225 3.76652c-1.93884-1.224445-3.474988-2.444245-4.69739-3.676375h4.69739v3.676374zm-4.786986-3.766523c-1.572475-1.606012-2.615362-3.2338-3.319905-4.921955h3.319905V61.641963zm12.273226-4.935403h4.78552v-5.00618h-4.78552v5.00618zm-12.27176-.000002h4.78552v-5.00618h-4.78552v5.00618zm11.51851 9.153147l-3.000622 1.65421-2.977324-1.660454V46.697246h5.977948v19.162462-.000002zM79.494736 47.1664v.038108l-.002117.037788c-.087806 1.554613-.178867 3.03365-.36164 4.455042h-4.581243V46.6918H79.5006l-.005864.4746zm-22.00521 4.530936h-4.58108c-.182772-1.421392-.273996-2.90043-.3618-4.455042l-.002117-.037788v-.03811l-.00391-.474597h4.948906v5.005537zm-4.959658-5.75234h26.981484v-13.13279H52.529868v13.13279zM63.515042 35.47966c.068907-.009128.236206-.017294.61055.023376.169254.018734.291266.07798.362942.176293.08096.110962.08373.25123.077377.328566-.41474.102638-.72132.07894-.888944-.06853-.155244-.136905-.166647-.35499-.161923-.459708v.000002zm2.150283.182857c.074608-.108722.20949-.174372.40106-.195188.419468-.046277.587418-.028823.647366-.016174.006843.103118.00212.346822-.170066.499577-.177724.15708-.503036.182058-.943355.072055-.01173-.080702-.01955-.23698.064996-.360273v.000002zm-2.944095-.599813c-.155407.378366-.20493.758492-.151497 1.159115.040562.316396.179516.5593.41344.722303.457913.3188 1.126455.221447 1.39247.164924.180983-.037948.32743-.019214.434782.055882.161108.112404.18994.320882.190267.322323l.070862.587323c-.026064-.03907-.055712-.077178-.093342-.110964-.108492-.097193-.24777-.14731-.414907-.149393l-.001303-.004164-.08601.007526c-.003097.00016-.006192.00048-.009287.0008l.00456.045475-.010424-.04147c-.143187.034425-1.51611.17597-1.7098-.401905l-.01238-.55882-.182447.31992c-.00847.01457-.204114.362834-.25559.909326-.04708.502298.024272 1.27424.633192 2.100144.924785 1.254387 1.434174 1.945308 1.57557 2.984012.04154.300227.01222.5023-.090083.617266-.137812.155157-.420933.15884-.720832.154997-.103116-.001122-.206883 0-.308533.005924-.195154.01073-.351864.08182-.465732.21184-.22855.260677-.1932.66306-.191407.680194l.020036.21088.152964-.149394c.038444-.037308.244024-.057003.435106-.04195 1.211.362833 1.503406.005283 1.759322-.50022.108817-.2128.314397-.36027.513136-.502938.213562-.153236.415395-.297985.50548-.519112.077702-.191184-.151172-.34362-.35317-.47796-.083404-.055563-.16974-.113046-.202647-.153076-.000488-.00048-.000977-.00112-.001466-.001762.01189-.002882.035023.002562.06793.01425.126246.045796.251842.021137.33655-.06597.07982-.08182.104907-.203352.062065-.303428-.064835-.14683-.225454-.336414-.336878-.427362-.028345-.023218-.052943-.069973-.061902-.101517.014824.002882.036653.008807.067115.021136.203298.082303.35447.087587.462472.016974.08194-.05396.121524-.139305.140583-.233456.109958.18622.26178.538967.377277 1.174167.09823.54169.151334.879383.0606.998834-.06793.089347-.259664.110323-.57732.14523l-.04659.005123c-.26634.028982-.459866.1313-.575362.30423-.200693.300547-.07917.698127-.073957.71494l.10784.343298.088292-.348902c.023946-.094792.145144-.165886.253147-.15708.056363.006726.106374.009127.168113.01169.11794.005283.2797.01249.628143.059885.32189.043713.616903-.006726.92902-.059565.215517-.036348.4382-.074297.68027-.081982.308534-.009287.544576.030583.700146.057323.166484.02834.310325.053.340136-.083743.034697-.17085.004887-.31944-.08878-.441453-.15264-.19919-.467525-.315438-.962904-.35547-.240278-.018413-.3965-.127615-.421586-.220965-.012706-.047397.011077-.09143.069884-.13034.170068-.110323.270415-.194066.280515-.295903.008957-.089348-.056203-.152435-.08357-.178855-.040237-.03939-.081776-.07782-.121687-.114326-.076563-.070454-.192222-.176774-.202322-.202073.007658-.016172.01336-.023538.01352-.02546.007333.00032.02248.003203.03307.005445.05962.011688.183915.037147.273184-.110324.105886-.17069-.01743-.373082-.135695-.509825.236204-.018894.37304.016813.460517.274927.040074.11753.07021.21072.09611.29062.067442.208157.108167.333692.216333.55882.18196.373724.365712.35723.76384.286298.679457-.121852 1.17337-.123614 1.178257-.123614l.144818-.00016-.049033-.13386c-.657302-1.792713-.870213-1.82778-.95036-1.84091-.028018-.004963-.052616-.00096-.072653.007366-2.70903.322163-3.685293-1.340852-3.838745-1.64252l.069233-.123773c1.68341 1.424916 3.537376 1.079055 3.61671 1.063043l.106535-.020816-.028344-.103277c-.703403-2.560493-1.489397-2.931493-1.91147-3.130683-.058808-.0277-.10947-.05156-.146937-.076217l-.093505-.061487-.052943.097354c-.310325.57099-1.30418.430084-1.678198.376764-.044636-.006245-.08031-.011208-.105723-.01377-.21063-.018895-.38314.029622-.512158.14523-.040564.036507-.072003.077498-.09937.11945l.07705-.59533c.000164-.00208.028835-.21056.189943-.323124.10686-.074456.252657-.09351.433313-.055562.26618.056523.935047.153876 1.39247-.164764.23409-.162843.373368-.405746.414256-.722305.051802-.399824.000814-.789558-.15166-1.159437.16567-.13146.55158-.51751.446672-1.194182l-.018897-.12153-.117126.04275c-.006843.002404-.660724.241144-1.042074.403026-.147586-.060205-.655672-.231855-1.64806-.231855-.99304 0-1.501777.17149-1.649527.231696-.37793-.161402-1.012914-.392776-1.04077-.402864l-.117126-.042752-.018733.121372c-.105233.67683.28035 1.063043.445696 1.194502h.000004zm3.460396 31.542894c-.039835 0-.072273-.006766-.11097-.007894-.038697.001128-.071704.007894-.11097.007894h.22194zm-1.165296-3.93806c0 .050598.011404.192785.177236.216803-.01466.457308-.04268 1.658534.034046 2.50045h-.282306s-.02916 1.188737 1.046145 1.212915c1.075306-.024178 1.046147-1.212915 1.046147-1.212915h-.291754c.076563-.841917.048707-2.043143.034046-2.50045.16567-.024017.177234-.166204.177234-.216802v-.285656h.008634l1.34686-.309834v-.90148l-.830955.25363-.563798.031705V51.39583s-.065974-1.914564-.369946-3.16655c-.153127.774505-.337693 1.784548-.337693 3.184644v10.08169l-.218612.01233-.386725-.022418V51.39583c.055874-1.9634.540176-3.5265.800165-3.917356-.118592-.338815-.147588-.31944-.318633-.31944-.389332 0-.958505 3.45973-.958505 4.236797v10.062156l-.583834-.033786-.830954-.253632v.90148l1.3032.299747v.295743zm8.752302-22.123898c.539688.309834.615437.666744.58416.911568-.044472.346342-.340136.680994-.687602.778508l-.028833.008006-.01971.022097c-.010427.011526-.25266.286614-.216495.607816l.0101.089028h3.1039l.0101-.089028c.036163-.321202-.205906-.59629-.21617-.607658l-.019873-.022258-.028835-.008006c-.347955-.097674-.643782-.432647-.688254-.779148-.031275-.244505.0448-.601254.584487-.910928 1.202204-.6882 1.006886-1.27072.997927-1.295217l-.02411-.06629h-1.405502c-.603057 0-.66056-.20143-.66105-.20143-.000162 0-.000162.00016-.000162.00016l-.01466-.1337c.073142-.06485.19206-.221608.426147-.575315.485442-.731112-.52682-2.367227-.57015-2.43656l-.21568-.34506.027367.404146c.039584.58268-.37353 1.279206-.372064 1.279046-.548485.656816.300387 1.467027.50271 1.64444l-.002444.032666.029322.010568-.012217.114967c-.000487.002082-.053593.206076-.662025.206076H72.79514l-.024272.06629c-.00896.024338-.20509.607018.997764 1.295217zm-17.88302 0c.539526.309834.615437.666744.583997.911568-.044473.346342-.340137.680994-.687603.778508l-.028834.008006-.01971.022257c-.010426.011366-.252496.286454-.216495.607657l.0101.089027h3.104062l.0101-.089027c.036-.321203-.20607-.59629-.216332-.60766l-.019874-.022256-.02867-.008005c-.348118-.097674-.643945-.432646-.688416-.779148-.031277-.244505.044797-.601254.584486-.910927 1.202203-.6882 1.006886-1.270718.99809-1.295217l-.02411-.06629H57.84074c-.603056 0-.66056-.201432-.661212-.201432l-.01466-.13354c.07314-.06485.191896-.221606.426146-.575313.485606-.731112-.526656-2.367227-.569988-2.43656l-.215842-.3449.02753.403986c.039585.58268-.373693 1.279205-.372227 1.279045-.548322.656816.300388 1.467027.50271 1.64444l-.002444.032666.029322.010568-.012217.114967c-.00049.00208-.053594.206075-.661864.206075h-1.404036l-.024272.06629c-.00896.024338-.205092.607018.997926 1.295217v-.000002zm25.904714 6.312124l-.002444.043073c-.510855 9.045066-.88129 15.5804-15.105246 22.824266l-.66056.335613v.00144l-.001466-.00064-.00163.00064v-.00144l-.66056-.335613c-14.223954-7.243867-14.59439-13.7792-15.105244-22.824266l-.002443-.043073v-.043392l.02525-16.226807h31.489094l.02525 16.226807v.043392z"
     fill="#202124"
     fill-rule="evenodd"
     id="path3" />
  <metadata
     id="metadata164">
    <rdf:RDF>
      <cc:Work
         rdf:about="">
        <dc:title>birkbeck-logo icon</dc:title>
      </cc:Work>
    </rdf:RDF>
  </metadata>
</svg>

