<?xml version="1.0" encoding="UTF-8"?>
<svg
  class="favicon"
  id="Layer_1"
  xmlns="http://www.w3.org/2000/svg"
  viewBox="0 0 260.19 259.32">
  <style>
    @media (prefers-color-scheme: dark) {
      path {
        fill: #fdf3e3;
      }
    }
    @media (prefers-color-scheme: light) {
      path {
        fill: #915f06;
      }
    }
  </style>
  <path
  d="
    M 130.37,0
    c -59.65,0-109.88,40.28-125,95.11
    h 13.6
    l 50.58,49.81
    v -49.81
    h 13.99
    v 68.04
    h -13.99
    l -50.58-49.42
    v 49.42
    h -13.88
    c 14.77,55.37,65.26,96.17,125.28,96.17
    s 110.57-40.84,125.31-96.25
    l -20.48-53.18-20.61,53.27
    h -17.14
    l -28.71-68.04
    h 15.46
    l 21.99,54.56,20.91-54.56
    h 16.09
    l 16.54,43.16
    c .19-2.85.29-5.72.29-8.61
    C 260.03,58.05,201.98,0,130.37,0
    Z
    m 30.76,163.15
    h -66.46
    v -68.04
    h 66.36
    v 11.67
    h -52.37
    v 16.93
    h 42.9
    v 11.04
    h -42.9
    v 16.72
    h 52.47
    v 11.67
    Z
  "/>
</svg>
