<?xml version="1.0" encoding="UTF-8" standalone="no" ?>
<svg
  viewBox="0 0 1031.09 780"
  version="1.1"
  id="svg4"
  sodipodi:docname="rainbow-road.svg"
  inkscape:export-filename="rainbow-road.png"
  inkscape:export-xdpi="96"
  inkscape:export-ydpi="96"
  inkscape:version="1.4.3 (fcd0343856, 2026-01-01)"
  xmlns:inkscape="http://www.inkscape.org/namespaces/inkscape"
  xmlns:sodipodi="http://sodipodi.sourceforge.net/DTD/sodipodi-0.dtd"
  xmlns="http://www.w3.org/2000/svg"
  xmlns:svg="http://www.w3.org/2000/svg"
>
  <defs id="defs4" />
  <sodipodi:namedview
    id="namedview4"
    pagecolor="#ffffff"
    bordercolor="#000000"
    borderopacity="0.25"
    inkscape:showpageshadow="2"
    inkscape:pageopacity="0.0"
    inkscape:pagecheckerboard="0"
    inkscape:deskcolor="#d1d1d1"
    inkscape:export-bgcolor="#26252200"
    inkscape:zoom="0.95917915"
    inkscape:cx="515.0237"
    inkscape:cy="390.43801"
    inkscape:window-width="1680"
    inkscape:window-height="981"
    inkscape:window-x="26"
    inkscape:window-y="23"
    inkscape:window-maximized="0"
    inkscape:current-layer="svg4"
  />
  <rect fill="#262522" x="0" y="0" width="1031.09" height="780" />
  <path
    fill="#bb4e30"
    d="M483.87,0s0,154.66,0,359.2c0,227.53-164.45,420.8-164.45,420.8H0s472.05-128.25,472.05-503.26c0-133.36,0-276.74,0-276.74h11.82Z"
    id="path1"
  />
  <path
    fill="#c08031"
    d="M509.21,0v780h-83.92s71.33-203.82,71.33-420.8c0-204.4,0-359.2,0-359.2h12.59Z"
    id="path2"
  />
  <path
    fill="#c08031"
    d="M521.88,0v780h83.92s-71.33-203.82-71.33-420.8V0h-12.59Z"
    id="path3"
  />
  <path
    fill="#bb4e30"
    d="M547.22,0v359.2c0,227.53,164.45,420.8,164.45,420.8h319.42s-472.05-128.25-472.05-503.26V0h-11.82Z"
    id="path4"
  />
</svg>
