<svg id="Icons" xmlns="http://www.w3.org/2000/svg" viewBox="0 0 130 130">
  <circle class="fill-alpha-yellow" cx="64.95" cy="74.2" r="43" />
  <rect
    class="fill-alpha-blue"
    x="26.04"
    y="60.18"
    width="41.35"
    height="7.09"
    transform="translate(-31.83 72.31) rotate(-60)"
  />
  <rect class="fill-alpha-blue" x="44.46" y="91.93" width="41.36" height="7.09" />
  <rect
    class="fill-alpha-blue"
    x="79.81"
    y="42.87"
    width="7.09"
    height="41.53"
    transform="translate(-20.65 50.2) rotate(-30)"
  />
  <path
    class="fill-alpha-blue"
    d="m28.38,114.63c-10.56,0-19.15-8.59-19.15-19.15s8.59-19.15,19.15-19.15,19.15,8.59,19.15,19.15-8.59,19.15-19.15,19.15Zm0-31.22c-6.65,0-12.07,5.41-12.07,12.07s5.41,12.07,12.07,12.07,12.07-5.41,12.07-12.07-5.41-12.07-12.07-12.07Z"
  />
  <path
    class="fill-alpha-blue"
    d="m101.73,114.63c-10.56,0-19.15-8.59-19.15-19.15s8.59-19.15,19.15-19.15,19.15,8.59,19.15,19.15-8.59,19.15-19.15,19.15Zm0-31.22c-6.65,0-12.07,5.41-12.07,12.07s5.41,12.07,12.07,12.07,12.07-5.41,12.07-12.07-5.41-12.07-12.07-12.07Z"
  />
  <path
    class="fill-alpha-blue"
    d="m65.05,51.1c-10.56,0-19.15-8.59-19.15-19.15s8.59-19.15,19.15-19.15,19.15,8.59,19.15,19.15-8.59,19.15-19.15,19.15Zm0-31.22c-6.65,0-12.07,5.41-12.07,12.07s5.41,12.07,12.07,12.07,12.07-5.41,12.07-12.07-5.41-12.07-12.07-12.07Z"
  />
</svg>
