<svg
  class="alpha-icon"
  viewBox="0 0 111.65 104.4"
  width="111.65"
  height="104.4"
  xmlns="http://www.w3.org/2000/svg"
>
  <circle class="fill-alpha-yellow" cx="55.719997" cy="61.399998" r="43" />
  <rect
    class="fill-alpha-blue"
    x="-46.027172"
    y="54.375996"
    width="41.349998"
    height="7.0900002"
    transform="rotate(-60)"
  />
  <rect
    class="fill-alpha-blue"
    x="35.23"
    y="79.129997"
    width="41.360001"
    height="7.0900002"
  />
  <rect
    class="fill-alpha-blue"
    x="35.233158"
    y="60.319344"
    width="7.0900002"
    height="41.529999"
    transform="rotate(-30)"
  />
  <path
    class="fill-alpha-blue"
    d="M 19.15,101.83 C 8.59,101.83 0,93.24 0,82.68 0,72.12 8.59,63.53 19.15,63.53 c 10.56,0 19.15,8.59 19.15,19.15 0,10.56 -8.59,19.15 -19.15,19.15 z m 0,-31.22 c -6.65,0 -12.07,5.41 -12.07,12.07 0,6.66 5.41,12.07 12.07,12.07 6.66,0 12.07,-5.41 12.07,-12.07 0,-6.66 -5.41,-12.07 -12.07,-12.07 z"
  />
  <path
    class="fill-alpha-blue"
    d="m 92.5,101.83 c -10.56,0 -19.15,-8.59 -19.15,-19.15 0,-10.56 8.59,-19.15 19.15,-19.15 10.56,0 19.15,8.59 19.15,19.15 0,10.56 -8.59,19.15 -19.15,19.15 z m 0,-31.22 c -6.65,0 -12.07,5.41 -12.07,12.07 0,6.66 5.41,12.07 12.07,12.07 6.66,0 12.07,-5.41 12.07,-12.07 0,-6.66 -5.41,-12.07 -12.07,-12.07 z"
  />
  <path
    class="fill-alpha-blue"
    d="M 55.82,38.3 C 45.26,38.3 36.67,29.71 36.67,19.15 36.67,8.59 45.26,0 55.82,0 66.38,0 74.97,8.59 74.97,19.15 74.97,29.71 66.38,38.3 55.82,38.3 Z m 0,-31.22 c -6.65,0 -12.07,5.41 -12.07,12.07 0,6.66 5.41,12.07 12.07,12.07 6.66,0 12.07,-5.41 12.07,-12.07 0,-6.66 -5.41,-12.07 -12.07,-12.07 z"
  />
</svg>
