<svg
  class="alpha-icon"
  viewBox="0 0 100.76 68.379998"
  width="100.76"
  height="68.379997"
  xmlns="http://www.w3.org/2000/svg"
>
  <circle
    class="fill-alpha-yellow"
    cx="50.380001"
    cy="34.189999"
    r="34.189999"
  />
  <path
    class="fill-alpha-blue"
    d="m 50.35,52.739999 c -2.6,0 -6.53,-0.56 -10.45,-3.26 -4.08,-2.8 -6.83,-7.03 -7.74,-11.9 -0.91,-4.87 0.14,-9.8 2.94,-13.89 3.46,-5.04 9.19,-8.06 15.33,-8.06 2.6,0 6.53,0.56 10.45,3.26 4.08,2.8 6.83,7.02 7.73,11.9 0.91,4.87 -0.13,9.8 -2.93,13.88 -3.46,5.05 -9.19,8.06 -15.33,8.06 z m 0.08,-30.01 c -3.8,0 -7.35,1.86 -9.49,4.98 -1.73,2.52 -2.38,5.57 -1.82,8.58 0.56,3.01 2.26,5.62 4.78,7.35 2.43,1.66 4.84,2.01 6.44,2.01 3.8,0 7.35,-1.86 9.49,-4.98 1.73,-2.52 2.37,-5.56 1.81,-8.58 -0.56,-3.01 -2.26,-5.62 -4.77,-7.35 -2.43,-1.66 -4.84,-2.01 -6.44,-2.01 z"
  />
  <path
    class="fill-alpha-blue"
    d="m 50.38,61.959999 c -26.17,0 -47.49,-24.42 -48.39,-25.46 l -1.99,-2.31 1.99,-2.31 c 0.9,-1.04 22.22,-25.4599998 48.39,-25.4599998 26.17,0 47.49,24.4199998 48.39,25.4599998 l 1.99,2.31 -1.99,2.31 c -0.89,1.04 -22.22,25.46 -48.39,25.46 z m -40.83,-27.77 c 5.79,5.83 22.35,20.69 40.83,20.69 18.48,0 35.04,-14.85 40.83,-20.69 -5.79,-5.83 -22.34,-20.69 -40.83,-20.69 -18.49,0 -35.04,14.85 -40.83,20.69 z"
  />
</svg>
