<svg id="Icons" xmlns="http://www.w3.org/2000/svg" viewBox="0 0 130 130">
  <circle class="fill-alpha-yellow" cx="65" cy="65" r="34.19" />
  <path
    class="fill-alpha-blue"
    d="m64.97,83.55c-2.6,0-6.53-.56-10.45-3.26-4.08-2.8-6.83-7.03-7.74-11.9-.91-4.87.14-9.8,2.94-13.89,3.46-5.04,9.19-8.06,15.33-8.06,2.6,0,6.53.56,10.45,3.26,4.08,2.8,6.83,7.02,7.73,11.9.91,4.87-.13,9.8-2.93,13.88-3.46,5.05-9.19,8.06-15.33,8.06Zm.08-30.01c-3.8,0-7.35,1.86-9.49,4.98-1.73,2.52-2.38,5.57-1.82,8.58.56,3.01,2.26,5.62,4.78,7.35,2.43,1.66,4.84,2.01,6.44,2.01,3.8,0,7.35-1.86,9.49-4.98,1.73-2.52,2.37-5.56,1.81-8.58-.56-3.01-2.26-5.62-4.77-7.35-2.43-1.66-4.84-2.01-6.44-2.01Z"
  />
  <path
    class="fill-alpha-blue"
    d="m65,92.77c-26.17,0-47.49-24.42-48.39-25.46l-1.99-2.31,1.99-2.31c.9-1.04,22.22-25.46,48.39-25.46s47.49,24.42,48.39,25.46l1.99,2.31-1.99,2.31c-.89,1.04-22.22,25.46-48.39,25.46Zm-40.83-27.77c5.79,5.83,22.35,20.69,40.83,20.69s35.04-14.85,40.83-20.69c-5.79-5.83-22.34-20.69-40.83-20.69s-35.04,14.85-40.83,20.69Z"
  />
</svg>
