<svg
  class="alpha-icon"
  viewBox="0 0 108.21 86"
  width="108.21"
  height="86"
  xmlns="http://www.w3.org/2000/svg"
>
  <circle class="fill-alpha-yellow" cx="59.110001" cy="43" r="43" />
  <polygon
    class="fill-alpha-blue"
    points="22.46,60.09 9.33,60.09 9.33,67.17 22.46,67.17 22.46,80.31 29.55,80.31 29.55,67.17 42.69,67.17 42.69,60.09 29.55,60.09 29.55,46.95 22.46,46.95 "
    transform="translate(-9.33,-20.720001)"
  />
  <rect
    class="fill-alpha-blue"
    x="37.98"
    y="47.080002"
    width="33.360001"
    height="7.0900002"
  />
  <rect
    class="fill-alpha-blue"
    x="37.98"
    y="31.649998"
    width="33.360001"
    height="7.0900002"
  />
  <path
    class="fill-alpha-blue"
    d="m 92.96,23.779999 c -8.4,0 -15.23,6.83 -15.23,15.23 h 7.09 c 0,-4.49 3.66,-8.15 8.15,-8.15 4.49,0 8.15,3.66 8.15,8.15 0,4.49 -3.66,8.15 -8.15,8.15 h -3.54 v 11.82 h 7.09 v -5.15 c 6.7,-1.6 11.69,-7.64 11.69,-14.82 0,-8.4 -6.83,-15.23 -15.23,-15.23 z"
  />
  <path
    class="fill-alpha-blue"
    d="m 92.96,61.909999 c -2.77,0 -5.02,2.25 -5.02,5.02 0,2.77 2.25,5.02 5.02,5.02 2.77,0 5.02,-2.25 5.02,-5.02 0,-2.77 -2.25,-5.02 -5.02,-5.02 z"
  />
</svg>
