<svg
  class="alpha-icon"
  viewBox="0 0 96.190002 86"
  width="96.190002"
  height="86"
  xmlns="http://www.w3.org/2000/svg"
>
  <circle class="fill-alpha-yellow" cx="48.689999" cy="43" r="43" />
  <path
    class="fill-alpha-blue"
    d="m 62.39,31.919998 c -4.7,0 -8.7,3.03 -10.17,7.24 H 0.01 v 7.09 h 52.21 c 1.47,4.21 5.47,7.24 10.17,7.24 4.7,0 8.7,-3.03 10.17,-7.24 h 23.63 v -7.09 H 72.56 c -1.47,-4.21 -5.47,-7.24 -10.17,-7.24 z m 0,14.47 c -2.04,0 -3.69,-1.66 -3.69,-3.69 0,-2.03 1.66,-3.69 3.69,-3.69 2.03,0 3.69,1.66 3.69,3.69 0,2.03 -1.66,3.69 -3.69,3.69 z"
  />
  <path
    class="fill-alpha-blue"
    d="m 33.28,15.289998 c -1.47,-4.21 -5.47,-7.2400001 -10.17,-7.2400001 -4.7,0 -8.7,3.0300001 -10.17,7.2400001 H 0 v 7.09 h 12.94 c 1.47,4.21 5.47,7.24 10.17,7.24 4.7,0 8.7,-3.03 10.17,-7.24 h 62.91 v -7.09 z m -10.17,7.24 c -2.04,0 -3.69,-1.66 -3.69,-3.69 0,-2.03 1.66,-3.69 3.69,-3.69 2.03,0 3.69,1.66 3.69,3.69 0,2.03 -1.66,3.69 -3.69,3.69 z"
  />
  <path
    class="fill-alpha-blue"
    d="m 23.11,56.149998 c -4.7,0 -8.7,3.03 -10.17,7.24 H 0 v 7.09 h 12.94 c 1.47,4.21 5.47,7.24 10.17,7.24 4.7,0 8.7,-3.03 10.17,-7.24 h 62.91 v -7.09 H 33.28 c -1.47,-4.21 -5.47,-7.24 -10.17,-7.24 z m 0,14.47 c -2.04,0 -3.69,-1.66 -3.69,-3.69 0,-2.03 1.66,-3.69 3.69,-3.69 2.03,0 3.69,1.66 3.69,3.69 0,2.03 -1.66,3.69 -3.69,3.69 z"
  />
</svg>
