<svg id="Icons" xmlns="http://www.w3.org/2000/svg" viewBox="0 0 130 130">
  <circle class="fill-alpha-yellow" cx="64.74" cy="65.26" r="43" />
  <path
    class="fill-alpha-blue"
    d="m78.44,54.18c-4.7,0-8.7,3.03-10.17,7.24H16.06v7.09h52.21c1.47,4.21,5.47,7.24,10.17,7.24s8.7-3.03,10.17-7.24h23.63v-7.09h-23.63c-1.47-4.21-5.47-7.24-10.17-7.24Zm0,14.47c-2.04,0-3.69-1.66-3.69-3.69s1.66-3.69,3.69-3.69,3.69,1.66,3.69,3.69-1.66,3.69-3.69,3.69Z"
  />
  <path
    class="fill-alpha-blue"
    d="m49.33,37.55c-1.47-4.21-5.47-7.24-10.17-7.24s-8.7,3.03-10.17,7.24h-12.94v7.09h12.94c1.47,4.21,5.47,7.24,10.17,7.24s8.7-3.03,10.17-7.24h62.91v-7.09h-62.91Zm-10.17,7.24c-2.04,0-3.69-1.66-3.69-3.69s1.66-3.69,3.69-3.69,3.69,1.66,3.69,3.69-1.66,3.69-3.69,3.69Z"
  />
  <path
    class="fill-alpha-blue"
    d="m39.16,78.41c-4.7,0-8.7,3.03-10.17,7.24h-12.94v7.09h12.94c1.47,4.21,5.47,7.24,10.17,7.24s8.7-3.03,10.17-7.24h62.91v-7.09h-62.91c-1.47-4.21-5.47-7.24-10.17-7.24Zm0,14.47c-2.04,0-3.69-1.66-3.69-3.69s1.66-3.69,3.69-3.69,3.69,1.66,3.69,3.69-1.66,3.69-3.69,3.69Z"
  />
</svg>
