<svg
  class="alpha-icon"
  viewBox="0 0 115.16 115.66"
  width="115.16"
  height="115.66"
  xmlns="http://www.w3.org/2000/svg"
>
  <circle class="fill-alpha-yellow" cx="43" cy="72.660004" r="43" />
  <path
    class="fill-alpha-blue"
    d="m 72.040001,0 c -23.78,0 -43.12,19.34 -43.12,43.12 0,23.78 19.34,43.12 43.12,43.12 C 95.820001,86.24 115.16,66.9 115.16,43.12 115.16,19.34 95.820001,0 72.040001,0 Z m 0,79.16 c -19.87,0 -36.04,-16.17 -36.04,-36.04 0,-19.87 16.17,-36.03 36.04,-36.03 19.87,0 36.039999,16.17 36.039999,36.04 0,19.87 -16.169999,36.04 -36.039999,36.04 z"
  />
  <path
    class="fill-alpha-blue"
    d="m 64.290001,69.07 h 18.1 V 36.99 h -18.1 z m 7.09,-25 h 3.93 v 17.91 h -3.93 z"
  />
  <path
    class="fill-alpha-blue"
    d="m 73.340001,15.79 c -4.99,0 -9.05,4.06 -9.05,9.05 0,4.99 4.06,9.05 9.05,9.05 4.99,0 9.05,-4.06 9.05,-9.05 0,-4.99 -4.06,-9.05 -9.05,-9.05 z m 0,11.01 c -1.08,0 -1.96,-0.88 -1.96,-1.96 0,-1.08 0.88,-1.96 1.96,-1.96 1.08,0 1.96,0.88 1.96,1.96 0,1.08 -0.88,1.96 -1.96,1.96 z"
  />
</svg>
