<svg id="Icons" xmlns="http://www.w3.org/2000/svg" viewBox="0 0 130 130">
  <circle class="fill-alpha-yellow" cx="50.28" cy="79.86" r="43" />
  <path
    class="fill-alpha-blue"
    d="m79.32,7.2c-23.78,0-43.12,19.34-43.12,43.12s19.34,43.12,43.12,43.12,43.12-19.34,43.12-43.12S103.1,7.2,79.32,7.2Zm0,79.16c-19.87,0-36.04-16.17-36.04-36.04S59.45,14.29,79.32,14.29s36.04,16.17,36.04,36.04-16.17,36.04-36.04,36.04Z"
  />
  <path
    class="fill-alpha-blue"
    d="m71.57,76.27h18.1v-32.08h-18.1v32.08Zm7.09-25h3.93v17.91h-3.93v-17.91Z"
  />
  <path
    class="fill-alpha-blue"
    d="m80.62,22.99c-4.99,0-9.05,4.06-9.05,9.05s4.06,9.05,9.05,9.05,9.05-4.06,9.05-9.05-4.06-9.05-9.05-9.05Zm0,11.01c-1.08,0-1.96-.88-1.96-1.96s.88-1.96,1.96-1.96,1.96.88,1.96,1.96-.88,1.96-1.96,1.96Z"
  />
</svg>
