<svg id="Icons" xmlns="http://www.w3.org/2000/svg" viewBox="0 0 130 130">
  <circle class="fill-alpha-yellow" cx="65" cy="65" r="43" />
  <path
    class="fill-alpha-blue"
    d="m108.3,21.7l-40.6,20.06c-6.87-.8-14.03,1.42-19.29,6.68-5.27,5.27-7.48,12.43-6.68,19.31l-20.04,40.55,40.55-20.04c.91.11,1.82.18,2.74.18,6,0,12-2.29,16.57-6.85h0c4.43-4.43,6.87-10.31,6.87-16.57,0-.93-.06-1.85-.17-2.76l20.04-40.56Zm-15.63,15.63l-7.66,15.5c-.96-1.58-2.12-3.05-3.45-4.39-1.36-1.36-2.85-2.48-4.42-3.44l15.53-7.67Zm-55.35,55.35l7.66-15.5c.95,1.57,2.08,3.05,3.43,4.41,1.35,1.35,2.84,2.48,4.41,3.43l-15.5,7.66Zm39.23-16.1h0c-6.38,6.38-16.75,6.38-23.12,0-3.09-3.09-4.79-7.19-4.79-11.56s1.7-8.47,4.79-11.56c3.19-3.19,7.38-4.78,11.56-4.78s8.38,1.59,11.56,4.78c3.09,3.09,4.79,7.19,4.79,11.56s-1.7,8.47-4.79,11.56Z"
  />
</svg>
