<svg
  class="alpha-icon"
  viewBox="0 0 86.610001 86.599998"
  width="86.610001"
  height="86.599998"
  xmlns="http://www.w3.org/2000/svg"
>
  <circle class="fill-alpha-yellow" cx="43.310001" cy="43.299999" r="43" />
  <path
    class="fill-alpha-blue"
    d="m 86.61,0 -40.6,20.06 c -6.87,-0.8 -14.03,1.42 -19.29,6.68 -5.27,5.27 -7.48,12.43 -6.68,19.31 L 0,86.6 40.55,66.56 c 0.91,0.11 1.82,0.18 2.74,0.18 6,0 12,-2.29 16.57,-6.85 v 0 c 4.43,-4.43 6.87,-10.31 6.87,-16.57 0,-0.93 -0.06,-1.85 -0.17,-2.76 L 86.6,0 Z M 70.98,15.63 63.32,31.13 C 62.36,29.55 61.2,28.08 59.87,26.74 58.51,25.38 57.02,24.26 55.45,23.3 Z m -55.35,55.35 7.66,-15.5 c 0.95,1.57 2.08,3.05 3.43,4.41 1.35,1.35 2.84,2.48 4.41,3.43 z m 39.23,-16.1 v 0 c -6.38,6.38 -16.75,6.38 -23.12,0 -3.09,-3.09 -4.79,-7.19 -4.79,-11.56 0,-4.37 1.7,-8.47 4.79,-11.56 3.19,-3.19 7.38,-4.78 11.56,-4.78 4.18,0 8.38,1.59 11.56,4.78 3.09,3.09 4.79,7.19 4.79,11.56 0,4.37 -1.7,8.47 -4.79,11.56 z"
  />
</svg>
