<svg
  class="alpha-icon"
  viewBox="0 0 100.91 86"
  width="100.91"
  height="86"
  xmlns="http://www.w3.org/2000/svg"
>
  <circle class="fill-alpha-yellow" cx="57.910004" cy="43" r="43" />
  <path
    class="fill-alpha-blue"
    d="m 57.91,71.54 c -3.68,0 -7.27,-0.69 -10.66,-2.06 l 2.65,-6.57 c 2.55,1.03 5.24,1.55 8.01,1.55 11.83,0 21.46,-9.63 21.46,-21.46 0,-11.83 -9.63,-21.46 -21.46,-21.46 -2.77,0 -5.46,0.52 -8.01,1.55 l -2.65,-6.57 c 3.39,-1.37 6.98,-2.06 10.66,-2.06 15.74,0 28.54,12.8 28.54,28.54 0,15.74 -12.8,28.54 -28.54,28.54 z"
  />
  <rect
    class="fill-alpha-blue"
    x="0"
    y="39.459999"
    width="55.990002"
    height="7.0900002"
  />
  <polygon
    class="fill-alpha-blue"
    points="65.93,65 52.99,50.87 58.21,46.09 75.55,65 58.21,83.91 52.99,79.13 "
    transform="translate(-14.75,-22)"
  />
</svg>
