<svg
  class="alpha-icon"
  viewBox="0 0 114 112.75"
  width="114"
  height="112.75"
  xmlns="http://www.w3.org/2000/svg"
>
  <circle class="fill-alpha-yellow" cx="43" cy="43" r="43" />
  <path
    class="fill-alpha-blue"
    d="M 64.23,97.39 C 55.04,97.39 46.4,93.81 39.9,87.31 26.48,73.89 26.48,52.07 39.9,38.65 c 13.42,-13.41 35.24,-13.41 48.66,0 13.42,13.42 13.42,35.24 0,48.66 -6.5,6.5 -15.14,10.08 -24.33,10.08 z m 0,-61.71 c -7,0 -13.99,2.66 -19.32,7.99 -10.65,10.65 -10.65,27.98 0,38.63 5.16,5.16 12.02,8 19.32,8 7.3,0 14.16,-2.84 19.32,-8 C 94.2,71.65 94.2,54.32 83.55,43.67 78.22,38.34 71.23,35.68 64.23,35.68 Z"
  />
  <path
    class="fill-alpha-blue"
    d="m 74.41,52.8 c -2.71,-2.71 -6.33,-4.21 -10.18,-4.21 -3.85,0 -7.47,1.5 -10.18,4.21 l -5.01,-5.01 c 4.05,-4.05 9.45,-6.29 15.19,-6.29 5.74,0 11.14,2.23 15.19,6.29 z"
  />
  <polygon
    class="fill-alpha-blue"
    points="93.72,96.65 111.39,114.32 114,111.72 96.33,94.05 101.34,89.03 124.02,111.72 111.39,124.34 88.71,101.66 "
    transform="translate(-10.02,-11.59)"
  />
</svg>
