<svg
  class="alpha-icon"
  viewBox="0 0 115.44 115.66"
  width="115.44"
  height="115.66"
  xmlns="http://www.w3.org/2000/svg"
>
  <circle class="fill-alpha-yellow" cx="43" cy="72.660004" r="43" />
  <path
    class="fill-alpha-blue"
    d="m 72.320001,0 c -23.78,0 -43.12,19.34 -43.12,43.12 0,23.78 19.34,43.12 43.12,43.12 C 96.100001,86.24 115.44,66.9 115.44,43.12 115.44,19.34 96.100001,0 72.320001,0 Z M 104.69,27.3 H 91.120001 c -2.06,-6.95 -5.45,-13.44 -10.01,-19.13 10.37,2.61 18.969999,9.72 23.579999,19.13 z m 3.67,15.82 c 0,3.01 -0.38,5.94 -1.08,8.73 H 92.770001 c 0.44,-2.83 0.67,-5.7 0.67,-8.61 0,-2.91 -0.24,-5.95 -0.71,-8.86 H 107.27 c 0.7,2.8 1.08,5.72 1.08,8.73 z M 72.320001,77.56 c -5.21,-5.31 -9.11,-11.67 -11.46,-18.62 h 22.92 c -2.35,6.94 -6.25,13.31 -11.46,18.62 z m -13.27,-25.7 c -0.5,-2.82 -0.77,-5.7 -0.77,-8.61 0,-2.91 0.29,-5.96 0.82,-8.86 h 26.44 c 0.53,2.9 0.82,5.86 0.82,8.86 0,3 -0.27,5.79 -0.77,8.61 z m -22.77,-8.73 c 0,-3.01 0.38,-5.94 1.08,-8.73 h 14.54 c -0.47,2.91 -0.71,5.87 -0.71,8.86 0,2.99 0.24,5.78 0.67,8.61 h -14.51 c -0.7,-2.8 -1.08,-5.72 -1.08,-8.73 z m 36.04,-34.19 c 5.14,5.24 9.01,11.52 11.37,18.37 h -22.73 c 2.36,-6.84 6.22,-13.12 11.37,-18.37 z m -8.79,-0.76 c -4.56,5.68 -7.95,12.18 -10.01,19.13 h -13.57 c 4.62,-9.41 13.21,-16.52 23.58,-19.13 z m -23.58,50.77 h 13.49 c 2.02,6.92 5.35,13.39 9.84,19.07 -10.26,-2.66 -18.76,-9.74 -23.34,-19.07 z m 41.4,19.07 c 4.49,-5.68 7.83,-12.15 9.84,-19.07 H 104.68 C 100.1,68.28 91.600001,75.36 81.340001,78.02 Z"
  />
</svg>
