<svg
  class="alpha-icon"
  viewBox="0 0 107.24 88.709999"
  width="107.24"
  height="88.709999"
  xmlns="http://www.w3.org/2000/svg"
>
  <circle class="fill-alpha-yellow" cx="47.93" cy="43.869999" r="43" />
  <path
    class="fill-alpha-blue"
    d="m 32.33,39.18 c 10.8,0 19.59,-8.79 19.59,-19.59 C 51.92,8.79 43.13,0 32.33,0 21.53,0 12.74,8.79 12.74,19.59 c 0,10.8 8.79,19.59 19.59,19.59 z m 0,-32.1 c 6.9,0 12.51,5.61 12.51,12.51 0,6.9 -5.61,12.51 -12.51,12.51 -6.9,0 -12.51,-5.61 -12.51,-12.51 0,-6.9 5.61,-12.51 12.51,-12.51 z"
  />
  <path
    class="fill-alpha-blue"
    d="m 74.91,53.37 c 10.8,0 19.59,-8.79 19.59,-19.59 0,-10.8 -8.79,-19.59 -19.59,-19.59 -10.8,0 -19.59,8.79 -19.59,19.59 0,10.8 8.79,19.59 19.59,19.59 z m 0,-32.1 c 6.9,0 12.51,5.61 12.51,12.51 0,6.9 -5.61,12.51 -12.51,12.51 -6.9,0 -12.51,-5.61 -12.51,-12.51 0,-6.9 5.61,-12.51 12.51,-12.51 z"
  />
  <path
    class="fill-alpha-blue"
    d="m 74.91,56.38 c -4.99,0 -9.71,1.14 -13.93,3.16 C 55.43,48.92 44.46,42.19 32.33,42.19 14.5,42.19 0,56.69 0,74.52 h 7.09 c 0,-13.92 11.32,-25.24 25.24,-25.24 9.66,0 18.37,5.46 22.61,14.03 -7.52,5.92 -12.36,15.1 -12.36,25.4 h 7.09 c 0,-13.92 11.32,-25.24 25.24,-25.24 13.92,0 25.24,11.32 25.24,25.24 h 7.09 c 0,-17.83 -14.5,-32.33 -32.33,-32.33 z"
  />
</svg>
