<svg id="Icons" xmlns="http://www.w3.org/2000/svg" viewBox="0 0 130 130">
  <circle class="fill-alpha-yellow" cx="65" cy="65" r="43" />
  <path
    class="fill-alpha-blue"
    d="m49.4,60.31c10.8,0,19.59-8.79,19.59-19.59s-8.79-19.59-19.59-19.59-19.59,8.79-19.59,19.59,8.79,19.59,19.59,19.59Zm0-32.1c6.9,0,12.51,5.61,12.51,12.51s-5.61,12.51-12.51,12.51-12.51-5.61-12.51-12.51,5.61-12.51,12.51-12.51Z"
  />
  <path
    class="fill-alpha-blue"
    d="m91.98,74.5c10.8,0,19.59-8.79,19.59-19.59s-8.79-19.59-19.59-19.59-19.59,8.79-19.59,19.59,8.79,19.59,19.59,19.59Zm0-32.1c6.9,0,12.51,5.61,12.51,12.51s-5.61,12.51-12.51,12.51-12.51-5.61-12.51-12.51,5.61-12.51,12.51-12.51Z"
  />
  <path
    class="fill-alpha-blue"
    d="m91.98,77.51c-4.99,0-9.71,1.14-13.93,3.16-5.55-10.62-16.52-17.35-28.65-17.35-17.83,0-32.33,14.5-32.33,32.33h7.09c0-13.92,11.32-25.24,25.24-25.24,9.66,0,18.37,5.46,22.61,14.03-7.52,5.92-12.36,15.1-12.36,25.4h7.09c0-13.92,11.32-25.24,25.24-25.24s25.24,11.32,25.24,25.24h7.09c0-17.83-14.5-32.33-32.33-32.33Z"
  />
</svg>
