<svg id="Icons" xmlns="http://www.w3.org/2000/svg" viewBox="0 0 130 130">
  <circle class="fill-alpha-yellow" cx="84.67" cy="49.51" r="34.19" />
  <path
    class="fill-alpha-blue"
    d="m64.35,53.39c14.94,0,27.1,12.16,27.1,27.1s-12.16,27.1-27.1,27.1-27.1-12.16-27.1-27.1,12.16-27.1,27.1-27.1m0-7.09c-18.88,0-34.19,15.31-34.19,34.19s15.31,34.19,34.19,34.19,34.19-15.31,34.19-34.19-15.31-34.19-34.19-34.19h0Z"
  />
  <path
    class="fill-alpha-blue"
    d="m45.1,22.41c14.94,0,27.1,12.16,27.1,27.1s-12.16,27.1-27.1,27.1-27.1-12.16-27.1-27.1,12.16-27.1,27.1-27.1m0-7.09c-18.88,0-34.19,15.31-34.19,34.19s15.31,34.19,34.19,34.19,34.19-15.31,34.19-34.19S63.98,15.32,45.1,15.32h0Z"
  />
</svg>
