<svg
  class="alpha-icon"
  viewBox="0 0 107.95 99.360001"
  width="107.95"
  height="99.360001"
  xmlns="http://www.w3.org/2000/svg"
>
  <circle
    class="fill-alpha-yellow"
    cx="73.759995"
    cy="34.189999"
    r="34.189999"
  />
  <path
    class="fill-alpha-blue"
    d="m 53.44,38.07 c 14.94,0 27.1,12.16 27.1,27.1 0,14.94 -12.16,27.1 -27.1,27.1 -14.94,0 -27.1,-12.16 -27.1,-27.1 0,-14.94 12.16,-27.1 27.1,-27.1 m 0,-7.09 c -18.88,0 -34.19,15.31 -34.19,34.19 0,18.88 15.31,34.19 34.19,34.19 18.88,0 34.19,-15.31 34.19,-34.19 0,-18.88 -15.31,-34.19 -34.19,-34.19 z"
  />
  <path
    class="fill-alpha-blue"
    d="m 34.19,7.0900003 c 14.94,0 27.1,12.1599997 27.1,27.0999997 0,14.94 -12.16,27.1 -27.1,27.1 -14.94,0 -27.1,-12.16 -27.1,-27.1 0,-14.94 12.16,-27.0999997 27.1,-27.0999997 M 34.19,3.0517578e-7 C 15.31,3.0517578e-7 0,15.31 0,34.19 0,53.07 15.31,68.38 34.19,68.38 53.07,68.38 68.38,53.07 68.38,34.19 68.38,15.31 53.07,3.0517577e-7 34.19,3.0517578e-7 Z"
  />
</svg>
