<svg
  class="alpha-icon"
  viewBox="0 0 96.760002 88.690002"
  width="96.760002"
  height="88.690002"
  xmlns="http://www.w3.org/2000/svg"
>
  <circle class="fill-alpha-yellow" cx="47.16" cy="45.689999" r="43" />
  <rect
    class="fill-alpha-blue"
    x="44"
    y="71.080002"
    width="52.759998"
    height="7.0900002"
  />
  <rect
    class="fill-alpha-blue"
    x="44"
    y="42.449997"
    width="52.759998"
    height="7.0900002"
  />
  <rect
    class="fill-alpha-blue"
    x="44"
    y="14.090001"
    width="52.759998"
    height="7.0900002"
  />
  <path
    class="fill-alpha-blue"
    d="m 15.02,60.68 c -7.69,0 -13.94,6.25 -13.94,13.94 0,7.69 6.25,13.94 13.94,13.94 7.69,0 13.94,-6.25 13.94,-13.94 0,-7.69 -6.25,-13.94 -13.94,-13.94 z m 0,20.79 c -3.78,0 -6.85,-3.08 -6.85,-6.85 0,-3.77 3.08,-6.85 6.85,-6.85 3.77,0 6.85,3.08 6.85,6.85 0,3.77 -3.07,6.85 -6.85,6.85 z"
  />
  <polygon
    class="fill-alpha-blue"
    points="17.84,60.6 32.18,72.97 52.61,52.74 47.62,47.7 31.85,63.32 22.48,55.23 "
    transform="translate(-17.84,-19.31)"
  />
  <polygon
    class="fill-alpha-blue"
    points="17.84,32.21 32.18,44.58 52.61,24.35 47.62,19.31 31.85,34.94 22.48,26.85 "
    transform="translate(-17.84,-19.31)"
  />
</svg>
