<svg id="Icons" xmlns="http://www.w3.org/2000/svg" viewBox="0 0 130 130">
  <circle class="fill-alpha-yellow" cx="65" cy="65" r="43" />
  <rect class="fill-alpha-blue" x="61.84" y="90.39" width="52.76" height="7.09" />
  <rect class="fill-alpha-blue" x="61.84" y="61.76" width="52.76" height="7.09" />
  <rect class="fill-alpha-blue" x="61.84" y="33.4" width="52.76" height="7.09" />
  <path
    class="fill-alpha-blue"
    d="m32.86,79.99c-7.69,0-13.94,6.25-13.94,13.94s6.25,13.94,13.94,13.94,13.94-6.25,13.94-13.94-6.25-13.94-13.94-13.94Zm0,20.79c-3.78,0-6.85-3.08-6.85-6.85s3.08-6.85,6.85-6.85,6.85,3.08,6.85,6.85-3.07,6.85-6.85,6.85Z"
  />
  <polygon
    class="fill-alpha-blue"
    points="31.85 63.32 22.48 55.23 17.84 60.6 32.18 72.97 52.61 52.74 47.62 47.7 31.85 63.32"
  />
  <polygon
    class="fill-alpha-blue"
    points="31.85 34.94 22.48 26.85 17.84 32.21 32.18 44.58 52.61 24.35 47.62 19.31 31.85 34.94"
  />
</svg>
