<svg
  class="alpha-icon"
  viewBox="0 0 103.92 113.98"
  width="103.92"
  height="113.98"
  xmlns="http://www.w3.org/2000/svg"
>
  <circle class="fill-alpha-yellow" cx="60.919998" cy="43" r="43" />
  <path
    class="fill-alpha-blue"
    d="M 46.32,68.659998 H 18.15 c -6.1,0 -11.06,-4.96 -11.06,-11.06 0,-6.1 4.96,-11.06 11.06,-11.06 h 42.78 v -7.09 H 18.15 c -10,0 -18.14,8.14 -18.14,18.15 0,10.01 8.14,18.14 18.14,18.14 h 28.17 c 6.1,0 11.06,4.96 11.06,11.06 0,6.1 -4.96,11.06 -11.06,11.06 H 24.65 c -1.53,-5.22 -6.36,-9.04 -12.07,-9.04 -6.94,0 -12.58,5.64 -12.58,12.580002 0,6.94 5.64,12.58 12.58,12.58 5.71,0 10.53,-3.82 12.07,-9.04 h 21.67 c 10,0 18.14,-8.140002 18.14,-18.140002 0,-10 -8.14,-18.14 -18.14,-18.14 z M 12.59,106.9 c -3.03,0 -5.5,-2.47 -5.5,-5.5 0,-3.030002 2.47,-5.500002 5.5,-5.500002 3.03,0 5.5,2.47 5.5,5.500002 0,3.03 -2.47,5.5 -5.5,5.5 z"
  />
</svg>
