<svg
  class="alpha-icon"
  viewBox="0 0 86 111.98"
  width="86"
  height="111.98"
  xmlns="http://www.w3.org/2000/svg"
>
  <circle class="fill-alpha-yellow" cx="43" cy="68.979996" r="43" />
  <path
    class="fill-alpha-blue"
    d="m 43.000002,88.8 c -10.93,0 -19.82,-8.89 -19.82,-19.82 0,-10.93 8.89,-19.82 19.82,-19.82 10.93,0 19.82,8.89 19.82,19.82 0,10.93 -8.89,19.82 -19.82,19.82 z m 0,-32.54 c -7.02,0 -12.73,5.71 -12.73,12.73 0,7.02 5.71,12.73 12.73,12.73 7.02,0 12.73,-5.71 12.73,-12.73 0,-7.02 -5.71,-12.73 -12.73,-12.73 z"
  />
  <path
    class="fill-alpha-blue"
    d="m 73.030002,50.69 h -7.09 V 30.03 c 0,-12.65 -10.29,-22.95 -22.95,-22.95 -12.66,0 -22.95,10.29 -22.95,22.95 v 20.66 h -7.09 V 30.03 c 0,-16.56 13.47,-30.03 30.03,-30.03 16.56,0 30.03,13.47 30.03,30.03 v 20.66 z"
  />
</svg>
