<svg id="Icons" xmlns="http://www.w3.org/2000/svg" viewBox="0 0 130 130">
  <circle class="fill-alpha-yellow" cx="65" cy="65" r="43" />
  <path
    class="fill-alpha-blue"
    d="m35.94,65c0-7.68-6.25-13.94-13.94-13.94s-13.94,6.25-13.94,13.94,6.25,13.94,13.94,13.94,13.94-6.25,13.94-13.94Zm-20.79,0c0-3.78,3.07-6.85,6.85-6.85s6.85,3.07,6.85,6.85-3.07,6.85-6.85,6.85-6.85-3.07-6.85-6.85Z"
  />
  <path
    class="fill-alpha-blue"
    d="m34.6,81.46c-7.68,0-13.94,6.25-13.94,13.94s6.25,13.94,13.94,13.94,13.94-6.25,13.94-13.94-6.25-13.94-13.94-13.94Zm0,20.79c-3.78,0-6.85-3.07-6.85-6.85s3.07-6.85,6.85-6.85,6.85,3.07,6.85,6.85-3.07,6.85-6.85,6.85Z"
  />
  <path
    class="fill-alpha-blue"
    d="m65,94.06c-7.68,0-13.94,6.25-13.94,13.94s6.25,13.94,13.94,13.94,13.94-6.25,13.94-13.94-6.25-13.94-13.94-13.94Zm0,20.79c-3.78,0-6.85-3.07-6.85-6.85s3.07-6.85,6.85-6.85,6.85,3.07,6.85,6.85-3.07,6.85-6.85,6.85Z"
  />
  <path
    class="fill-alpha-blue"
    d="m95.41,81.45c-7.68,0-13.94,6.25-13.94,13.94s6.25,13.94,13.94,13.94,13.94-6.25,13.94-13.94-6.25-13.94-13.94-13.94Zm0,20.79c-3.78,0-6.85-3.07-6.85-6.85s3.07-6.85,6.85-6.85,6.85,3.07,6.85,6.85-3.07,6.85-6.85,6.85Z"
  />
  <path
    class="fill-alpha-blue"
    d="m95.41,48.37c7.68,0,13.94-6.25,13.94-13.94s-6.25-13.94-13.94-13.94-13.94,6.25-13.94,13.94,6.25,13.94,13.94,13.94Zm0-20.79c3.78,0,6.85,3.07,6.85,6.85s-3.07,6.85-6.85,6.85-6.85-3.07-6.85-6.85,3.07-6.85,6.85-6.85Z"
  />
  <path
    class="fill-alpha-blue"
    d="m108,51.06c-7.68,0-13.94,6.25-13.94,13.94s6.25,13.94,13.94,13.94,13.94-6.25,13.94-13.94-6.25-13.94-13.94-13.94Zm0,20.79c-3.78,0-6.85-3.07-6.85-6.85s3.07-6.85,6.85-6.85,6.85,3.07,6.85,6.85-3.07,6.85-6.85,6.85Z"
  />
  <path
    class="fill-alpha-blue"
    d="m65,8.06c-7.68,0-13.94,6.25-13.94,13.94s6.25,13.94,13.94,13.94,13.94-6.25,13.94-13.94-6.25-13.94-13.94-13.94Zm0,20.79c-3.78,0-6.85-3.07-6.85-6.85s3.07-6.85,6.85-6.85,6.85,3.07,6.85,6.85-3.07,6.85-6.85,6.85Z"
  />
  <path
    class="fill-alpha-blue"
    d="m34.6,20.67c-7.68,0-13.94,6.25-13.94,13.94s6.25,13.94,13.94,13.94,13.94-6.25,13.94-13.94-6.25-13.94-13.94-13.94Zm0,20.79c-3.78,0-6.85-3.07-6.85-6.85s3.07-6.85,6.85-6.85,6.85,3.07,6.85,6.85-3.07,6.85-6.85,6.85Z"
  />
  <polygon
    class="fill-alpha-blue"
    points="61.31 81.83 44.13 67 48.76 61.64 60.98 72.18 81.09 52.26 86.08 57.29 61.31 81.83"
  />
</svg>
