<svg
  class="alpha-icon"
  viewBox="0 0 113.88 113.88"
  width="113.88"
  height="113.88"
  xmlns="http://www.w3.org/2000/svg"
>
  <circle class="fill-alpha-yellow" cx="56.939999" cy="56.939999" r="43" />
  <path
    class="fill-alpha-blue"
    d="M 27.88,56.94 C 27.88,49.26 21.63,43 13.94,43 6.25,43 0,49.25 0,56.94 c 0,7.69 6.25,13.94 13.94,13.94 7.69,0 13.94,-6.25 13.94,-13.94 z m -20.79,0 c 0,-3.78 3.07,-6.85 6.85,-6.85 3.78,0 6.85,3.07 6.85,6.85 0,3.78 -3.07,6.85 -6.85,6.85 -3.78,0 -6.85,-3.07 -6.85,-6.85 z"
  />
  <path
    class="fill-alpha-blue"
    d="m 26.54,73.4 c -7.68,0 -13.94,6.25 -13.94,13.94 0,7.69 6.25,13.94 13.94,13.94 7.69,0 13.94,-6.25 13.94,-13.94 0,-7.69 -6.25,-13.94 -13.94,-13.94 z m 0,20.79 c -3.78,0 -6.85,-3.07 -6.85,-6.85 0,-3.78 3.07,-6.85 6.85,-6.85 3.78,0 6.85,3.07 6.85,6.85 0,3.78 -3.07,6.85 -6.85,6.85 z"
  />
  <path
    class="fill-alpha-blue"
    d="M 56.94,86 C 49.26,86 43,92.25 43,99.94 c 0,7.69 6.25,13.94 13.94,13.94 7.69,0 13.94,-6.25 13.94,-13.94 C 70.88,92.25 64.63,86 56.94,86 Z m 0,20.79 c -3.78,0 -6.85,-3.07 -6.85,-6.85 0,-3.78 3.07,-6.85 6.85,-6.85 3.78,0 6.85,3.07 6.85,6.85 0,3.78 -3.07,6.85 -6.85,6.85 z"
  />
  <path
    class="fill-alpha-blue"
    d="m 87.35,73.39 c -7.68,0 -13.94,6.25 -13.94,13.94 0,7.69 6.25,13.94 13.94,13.94 7.69,0 13.94,-6.25 13.94,-13.94 0,-7.69 -6.25,-13.94 -13.94,-13.94 z m 0,20.79 c -3.78,0 -6.85,-3.07 -6.85,-6.85 0,-3.78 3.07,-6.85 6.85,-6.85 3.78,0 6.85,3.07 6.85,6.85 0,3.78 -3.07,6.85 -6.85,6.85 z"
  />
  <path
    class="fill-alpha-blue"
    d="m 87.35,40.31 c 7.68,0 13.94,-6.25 13.94,-13.94 0,-7.69 -6.25,-13.94 -13.94,-13.94 -7.69,0 -13.94,6.25 -13.94,13.94 0,7.69 6.25,13.94 13.94,13.94 z m 0,-20.79 c 3.78,0 6.85,3.07 6.85,6.85 0,3.78 -3.07,6.85 -6.85,6.85 -3.78,0 -6.85,-3.07 -6.85,-6.85 0,-3.78 3.07,-6.85 6.85,-6.85 z"
  />
  <path
    class="fill-alpha-blue"
    d="M 99.94,43 C 92.26,43 86,49.25 86,56.94 c 0,7.69 6.25,13.94 13.94,13.94 7.69,0 13.94,-6.25 13.94,-13.94 C 113.88,49.25 107.63,43 99.94,43 Z m 0,20.79 c -3.78,0 -6.85,-3.07 -6.85,-6.85 0,-3.78 3.07,-6.85 6.85,-6.85 3.78,0 6.85,3.07 6.85,6.85 0,3.78 -3.07,6.85 -6.85,6.85 z"
  />
  <path
    class="fill-alpha-blue"
    d="M 56.94,0 C 49.26,0 43,6.25 43,13.94 c 0,7.69 6.25,13.94 13.94,13.94 7.69,0 13.94,-6.25 13.94,-13.94 C 70.88,6.25 64.63,0 56.94,0 Z m 0,20.79 c -3.78,0 -6.85,-3.07 -6.85,-6.85 0,-3.78 3.07,-6.85 6.85,-6.85 3.78,0 6.85,3.07 6.85,6.85 0,3.78 -3.07,6.85 -6.85,6.85 z"
  />
  <path
    class="fill-alpha-blue"
    d="m 26.54,12.61 c -7.68,0 -13.94,6.25 -13.94,13.94 0,7.69 6.25,13.94 13.94,13.94 7.69,0 13.94,-6.25 13.94,-13.94 0,-7.69 -6.25,-13.94 -13.94,-13.94 z m 0,20.79 c -3.78,0 -6.85,-3.07 -6.85,-6.85 0,-3.78 3.07,-6.85 6.85,-6.85 3.78,0 6.85,3.07 6.85,6.85 0,3.78 -3.07,6.85 -6.85,6.85 z"
  />
  <polygon
    class="fill-alpha-blue"
    points="48.76,61.64 60.98,72.18 81.09,52.26 86.08,57.29 61.31,81.83 44.13,67 "
    transform="translate(-8.06,-8.06)"
  />
</svg>
