<svg
  class="alpha-icon"
  viewBox="0 0 100.76 97.489998"
  width="100.76"
  height="97.489998"
  xmlns="http://www.w3.org/2000/svg"
>
  <circle class="fill-alpha-yellow" cx="50.389996" cy="43" r="43" />
  <path
    class="fill-alpha-blue"
    d="m 35.1,25.289999 c -2.8,4.08 -3.85,9.02 -2.94,13.89 0.91,4.87 3.66,9.09 7.74,11.9 3.92,2.69 7.85,3.26 10.45,3.26 6.14,0 11.87,-3.01 15.33,-8.06 2.8,-4.08 3.84,-9.01 2.93,-13.88 -0.91,-4.87 -3.65,-9.1 -7.73,-11.9 -3.92,-2.69 -7.85,-3.26 -10.45,-3.26 -6.14,0 -11.87,3.01 -15.33,8.06 z m 5.84,4.01 c 2.14,-3.12 5.69,-4.98 9.49,-4.98 1.6,0 4.02,0.35 6.44,2.01 2.52,1.73 4.21,4.34 4.77,7.35 0.56,3.01 -0.08,6.06 -1.81,8.58 -2.14,3.12 -5.69,4.98 -9.49,4.98 -1.6,0 -4.02,-0.35 -6.44,-2.01 -2.52,-1.73 -4.22,-4.34 -4.78,-7.35 -0.56,-3.01 0.08,-6.06 1.82,-8.58 z"
  />
  <path
    class="fill-alpha-blue"
    d="M 98.77,33.469999 C 97.88,32.429999 76.55,8.0099986 50.38,8.0099986 24.21,8.0099986 2.89,32.429999 1.99,33.469999 l -1.99,2.31 1.99,2.31 c 0.89,1.04 22.22,25.46 48.39,25.46 26.17,0 47.49,-24.42 48.39,-25.46 l 1.99,-2.31 z m -48.39,23 c -18.49,0 -35.05,-14.86 -40.83,-20.69 5.78,-5.84 22.3,-20.68 40.83,-20.68 18.53,0 35.04,14.85 40.83,20.69 -5.79,5.84 -22.35,20.69 -40.83,20.69 z"
  />
  <polygon
    class="fill-alpha-blue"
    points="80.31,110.32 84.8,115.8 105.18,99.11 84.8,82.42 80.31,87.9 94,99.11 "
    transform="translate(-14.38,-18.310001)"
  />
</svg>
